<?xml version="1.0" encoding="UTF-8" standalone="no"?>
<svg
   xmlns:dc="http://purl.org/dc/elements/1.1/"
   xmlns:cc="http://creativecommons.org/ns#"
   xmlns:rdf="http://www.w3.org/1999/02/22-rdf-syntax-ns#"
   xmlns:svg="http://www.w3.org/2000/svg"
   xmlns="http://www.w3.org/2000/svg"
   viewBox="0 0 630.75 200"
   height="200"
   width="630.75"
   xml:space="preserve"
   version="1.1"
   id="svg2"><metadata
     id="metadata8"><rdf:RDF><cc:Work
         rdf:about=""><dc:format>image/svg+xml</dc:format><dc:type
           rdf:resource="http://purl.org/dc/dcmitype/StillImage" /><dc:title></dc:title></cc:Work></rdf:RDF></metadata><defs
     id="defs6"><clipPath
       id="clipPath16"
       clipPathUnits="userSpaceOnUse"><path
         style="clip-rule:evenodd"
         id="path18"
         d="m 0,0.1 595.2,0 0,841.8 L 0,841.9 0,0.1 Z" /></clipPath></defs><g
     transform="matrix(1.25,0,0,-1.25,-76.375,1036.125)"
     id="g10"><g
       id="g4314"><path
         d="m 218.9,755.8 0.2,0 c 0.3,0 0.5,0.1 0.7,0.2 0.1,0.1 0.2,0.1 0.3,0.3 0.1,0 0.2,0.2 0.2,0.3 0.2,0.2 0.3,0.5 0.3,0.8 0,0.1 0,0.1 0,0.1 l 0,12 c 0,0 0,0.1 0,0.2 0,0.3 -0.1,0.5 -0.2,0.8 -0.1,0.1 -0.2,0.2 -0.3,0.4 -0.1,0 -0.2,0.1 -0.2,0.1 -0.4,0.2 -0.6,0.3 -1,0.3 l 0,0.1 5.1,0 0,-0.1 c -0.4,-0.1 -0.7,-0.1 -1,-0.3 -0.1,0 -0.2,-0.1 -0.2,-0.1 -0.2,-0.2 -0.3,-0.3 -0.3,-0.4 -0.2,-0.3 -0.3,-0.5 -0.3,-0.8 0,-0.1 0,-0.2 0.1,-0.3 l 0,-11.5 c -0.1,-0.1 -0.1,-0.1 -0.1,-0.2 0,-0.3 0.1,-0.6 0.3,-0.9 0,-0.1 0.2,-0.2 0.3,-0.3 0,0 0,0 0,0 0.5,-0.3 0.9,-0.4 1.4,-0.4 0.1,0 0.2,0 0.2,0 l 1.4,0 c 0.1,0 0.1,0 0.2,0 0.4,0 0.8,0 1.3,0.2 0,0 0.1,0.1 0.2,0.1 0.3,0.2 0.4,0.3 0.6,0.6 0.1,0.1 0.1,0.2 0.2,0.3 0.2,0.3 0.3,0.6 0.4,0.9 l 0.2,0 -0.6,-2.6 -9.4,0 0,0.2 z"
         style="fill:#000000;fill-opacity:1;fill-rule:evenodd;stroke:none"
         id="path22" /><path
         d="m 232.1,771.3 0,0.1 9.4,0 0,-2.4 -0.1,0 c 0,1.3 -0.9,2 -2.7,2 l -3.3,0 0,-7.2 2.9,0 c 0,0 0,0 0.1,0 0.5,0 1,0 1.4,0.2 0.1,0.1 0.1,0.1 0.1,0.1 0.3,0.1 0.4,0.3 0.5,0.5 0.1,0.2 0.2,0.4 0.2,0.7 l 0,0 0.2,0 0,-3.5 -0.2,0 c 0,0.2 -0.1,0.5 -0.3,0.7 0,0.1 0,0.2 -0.1,0.2 -0.1,0.2 -0.2,0.3 -0.4,0.4 0,0 0,0 -0.1,0 -0.1,0.1 -0.3,0.1 -0.5,0.2 -0.2,0 -0.5,0 -0.7,0 l 0,0 -3.1,0 0,-5.6 0,0 c 0,0 0,-0.1 0,-0.1 0,-0.4 0.1,-0.7 0.2,-1 0.2,-0.3 0.6,-0.5 1.1,-0.5 l 2.4,0 c 0.1,0 0.1,0 0.1,0 0.5,0 0.9,0.1 1.3,0.3 l 0,0 c 0.1,0 0.2,0.1 0.2,0.1 0.3,0.1 0.5,0.3 0.7,0.6 l 0,0 c 0.1,0.1 0.1,0.2 0.2,0.3 0.1,0.2 0.3,0.5 0.3,0.8 l 0.2,0 -0.6,-2.5 -9.4,0 0,0.2 0.2,0 c 0.3,0 0.5,0 0.7,0.2 0.1,0 0.2,0.1 0.3,0.2 0.1,0.1 0.2,0.2 0.2,0.3 0.2,0.3 0.3,0.5 0.3,0.8 0,0.1 0,0.1 0,0.2 l 0,11.9 0,0 c 0,0 0,0 0,0 0,0.4 -0.1,0.8 -0.4,1.2 l 0,0 c -0.1,0.2 -0.2,0.3 -0.4,0.4 -0.2,0.1 -0.4,0.2 -0.6,0.2 0,0 -0.1,0 -0.1,0 l -0.2,0 z"
         style="fill:#000000;fill-opacity:1;fill-rule:evenodd;stroke:none"
         id="path24" /><path
         d="m 251.3,771.4 0,-0.1 c 0,0 -0.1,0 -0.1,0 -0.3,0 -0.6,-0.1 -0.9,-0.3 -0.1,0 -0.1,-0.1 -0.2,-0.1 l 0,0 c -0.1,-0.1 -0.3,-0.2 -0.3,-0.4 -0.2,-0.2 -0.2,-0.5 -0.2,-0.8 0,0 0,-0.1 0,-0.2 l 0,-12 c 0,0 0,-0.1 0,-0.1 0,-0.3 0,-0.6 0.2,-0.8 0.1,-0.1 0.2,-0.3 0.3,-0.4 0.1,-0.1 0.1,-0.1 0.2,-0.1 0.3,-0.2 0.6,-0.3 1,-0.3 l 0,0 0,-0.2 -5,0 0,0.2 0,0 c 0,0 0,0 0,0 0.4,0 0.7,0.1 0.9,0.3 0.1,0 0.2,0 0.3,0.1 l 0,0 c 0.1,0.1 0.2,0.2 0.2,0.4 0.2,0.2 0.3,0.5 0.3,0.8 0,0 0,0.1 0,0.1 l 0,12 0,0 c 0,0.1 0,0.1 0,0.2 0,0.3 -0.1,0.6 -0.2,0.8 -0.1,0.2 -0.2,0.3 -0.3,0.4 l 0,0 c -0.1,0 -0.1,0 -0.2,0.1 -0.3,0.2 -0.6,0.2 -1,0.2 l 0,0 0,0.2 5,0 z"
         style="fill:#000000;fill-opacity:1;fill-rule:evenodd;stroke:none"
         id="path26" /><path
         d="m 261.7,755.6 -5.9,0 0,0.2 0.2,0 0,0 c 0.3,0 0.5,0.1 0.7,0.2 0.1,0.1 0.2,0.1 0.3,0.2 l 0,0 c 0.1,0.1 0.2,0.2 0.2,0.3 0.2,0.3 0.3,0.6 0.3,0.9 0,0 0,0.1 0,0.1 l 0,12 0,0 c 0,0 0,0 0,0.1 0,0.4 -0.1,0.7 -0.3,1 0,0.1 -0.1,0.1 -0.2,0.2 0,0.1 -0.2,0.2 -0.3,0.3 -0.2,0.1 -0.4,0.2 -0.7,0.2 0,0 0,0 0,0 l -0.2,0 0,0.1 5.1,0 c 0.1,0 0.1,0 0.1,0 0.6,0 1.2,0 1.8,-0.2 0.3,-0.2 0.6,-0.3 0.9,-0.4 0.2,-0.1 0.4,-0.3 0.6,-0.5 0.3,-0.3 0.6,-0.6 0.8,-1 0.1,0 0.1,-0.1 0.1,-0.2 l 0,0 c 0.2,-0.4 0.3,-0.8 0.3,-1.3 0,-0.1 0,-0.1 0,-0.1 l 0,0 c 0,0 0,-0.1 0,-0.1 0,-0.5 -0.1,-1 -0.4,-1.5 -0.1,-0.3 -0.3,-0.5 -0.5,-0.7 l 0,0 c -0.3,-0.3 -0.6,-0.5 -1,-0.7 -0.5,-0.3 -0.9,-0.5 -1.5,-0.6 l 0,-0.1 c 0.5,0 0.9,-0.1 1.4,-0.2 l 0,0 c 0.4,-0.1 0.8,-0.2 1.2,-0.4 l 0,0 c 0,0 0.1,-0.1 0.1,-0.1 0.4,-0.2 0.6,-0.4 0.9,-0.6 0.2,-0.3 0.4,-0.5 0.7,-0.9 0,0 0,0 0,0 0.4,-0.7 0.6,-1.3 0.6,-2.1 l 0,0 c 0,0 0,0 0,-0.1 0,-0.6 -0.2,-1.2 -0.5,-1.8 -0.1,0 -0.1,-0.1 -0.2,-0.2 -0.4,-0.6 -0.8,-1 -1.4,-1.4 l 0,0 c -0.9,-0.4 -1.8,-0.6 -2.8,-0.6 -0.1,0 -0.3,0 -0.4,0 z m -2.6,8.6 1,0 0,0 c 0.1,0 0.2,0 0.3,0 0.6,0 1,0 1.5,0.2 l 0,0 c 0.1,0 0.1,0.1 0.2,0.1 0.2,0.1 0.4,0.3 0.6,0.4 0.2,0.2 0.4,0.5 0.6,0.7 0,0.1 0,0.2 0.1,0.3 0.2,0.4 0.3,0.9 0.3,1.4 0,0 0,0.1 0,0.1 l 0,0 c 0,0.5 -0.1,0.9 -0.2,1.3 l 0,0 c -0.1,0.3 -0.2,0.4 -0.3,0.6 -0.1,0.2 -0.2,0.4 -0.4,0.6 l 0,0 c -0.2,0.2 -0.5,0.4 -0.8,0.6 -0.1,0.1 -0.1,0.1 -0.2,0.2 -0.4,0.1 -0.8,0.2 -1.3,0.2 l 0,0 c -0.5,0 -0.9,0 -1.4,-0.2 l 0,-6.5 z m 1.6,-0.5 -1.6,0 0,-5.7 0,0 c 0,0 0,-0.1 0,-0.1 0,-0.3 0,-0.6 0.1,-0.9 l 0,0 c 0,0 0.1,-0.1 0.1,-0.2 0.1,-0.1 0.2,-0.3 0.4,-0.4 0.1,0 0.1,0 0.1,0 l 0,0 c 0.5,-0.2 0.9,-0.3 1.4,-0.3 0,0 0.1,0 0.2,0 l 0,0 c 0.1,0 0.2,0 0.3,0 0.6,0 1.2,0.1 1.7,0.4 0.4,0.3 0.8,0.6 1.1,1 0,0.1 0,0.1 0,0.1 0.5,0.7 0.6,1.4 0.6,2.2 0,0.6 -0.1,1 -0.3,1.6 l 0,0 c 0,0.1 -0.1,0.2 -0.2,0.4 -0.2,0.3 -0.4,0.5 -0.7,0.8 l 0,0 c -0.2,0.2 -0.3,0.3 -0.6,0.4 -0.2,0.2 -0.5,0.3 -0.8,0.4 -0.6,0.2 -1.1,0.3 -1.8,0.3 l 0,0 z"
         style="fill:#000000;fill-opacity:1;fill-rule:evenodd;stroke:none"
         id="path28" /><path
         d="m 287,771.4 0,-0.1 0,0 c -0.3,-0.1 -0.6,-0.1 -1,-0.3 l 0,0 c 0,0 0,0 0,0 -0.2,-0.1 -0.3,-0.2 -0.4,-0.4 0,-0.1 -0.1,-0.1 -0.1,-0.2 l 0,0 c -0.1,-0.4 -0.2,-0.7 -0.2,-1.1 0,-0.1 0,-0.2 0,-0.2 l 0,-13.9 -0.1,0 -12.1,13.6 0,-9.7 c 0,-0.1 0,-0.2 0,-0.3 0,-0.5 0,-1 0,-1.6 0.1,-0.3 0.2,-0.5 0.3,-0.8 l 0,0 0,0 c 0.2,-0.2 0.3,-0.3 0.5,-0.4 0.2,-0.1 0.5,-0.2 0.8,-0.2 0.1,0 0.1,0 0.1,0 l 0,-0.2 -3.9,0 0,0.2 0,0 0,0 c 0.3,0 0.6,0.1 0.9,0.3 0.1,0 0.1,0 0.1,0 l 0,0 c 0.1,0.1 0.3,0.2 0.3,0.4 0.1,0.1 0.2,0.3 0.2,0.5 l 0,0 c 0.1,0.6 0.2,1.1 0.2,1.7 0,0.1 0,0.2 0,0.3 l 0,10.3 -0.6,0.6 c -0.3,0.5 -0.6,0.8 -1.1,1 -0.3,0.2 -0.6,0.3 -1,0.3 l 0,0.2 3,0 11.9,-13.4 0,10.2 c 0,0.2 0,0.2 0,0.3 0,0.5 0,1 -0.1,1.5 0,0.2 0,0.3 -0.2,0.5 0,0.2 -0.1,0.3 -0.2,0.4 l 0,0 c -0.1,0 -0.2,0.1 -0.2,0.1 -0.4,0.2 -0.6,0.3 -1,0.3 0,0 -0.1,0 -0.1,0 l 0,0.1 4,0 z"
         style="fill:#000000;fill-opacity:1;fill-rule:evenodd;stroke:none"
         id="path30" /><path
         d="m 296.5,771.4 0,-0.1 c -0.1,0 -0.1,0 -0.1,0 -0.3,0 -0.6,-0.1 -0.9,-0.3 -0.1,0 -0.2,-0.1 -0.2,-0.1 l 0,0 c -0.2,-0.1 -0.2,-0.2 -0.3,-0.4 -0.2,-0.2 -0.3,-0.5 -0.3,-0.8 0,0 0,-0.1 0,-0.2 l 0,-12 c 0,0 0,-0.1 0,-0.1 0,-0.3 0.1,-0.6 0.3,-0.8 0.1,-0.1 0.1,-0.3 0.3,-0.4 0.1,-0.1 0.2,-0.1 0.2,-0.1 0.3,-0.2 0.6,-0.3 0.9,-0.3 l 0.1,0 0,-0.2 -5.1,0 0,0.2 c 0.1,0 0.1,0 0.1,0 0.3,0 0.6,0.1 0.9,0.3 0.1,0 0.1,0 0.2,0.1 0.1,0.1 0.2,0.2 0.3,0.4 0.2,0.2 0.2,0.5 0.2,0.8 0,0 0,0.1 0,0.1 l 0,12 c 0,0.1 0,0.1 0,0.2 0,0.3 0,0.6 -0.2,0.8 -0.1,0.2 -0.2,0.3 -0.3,0.4 0,0 -0.1,0 -0.1,0.1 -0.4,0.2 -0.7,0.2 -1,0.2 l -0.1,0 0,0.2 5.1,0 z"
         style="fill:#000000;fill-opacity:1;fill-rule:evenodd;stroke:none"
         id="path32" /><path
         d="m 312.2,770.9 -7.6,0 0,0 c -0.1,0 -0.1,0 -0.2,0 -0.5,0 -0.9,-0.1 -1.3,-0.3 l 0,0 c -0.2,0 -0.3,-0.1 -0.4,-0.1 -0.2,-0.2 -0.4,-0.3 -0.6,-0.6 l 0,0 c 0,0 -0.1,-0.1 -0.1,-0.1 -0.2,-0.4 -0.4,-0.8 -0.4,-1.2 l -0.2,0 0,2.8 13,0 0,-0.3 -11,-14.9 7.6,0 c 0.1,0 0.1,0 0.2,0 0.6,0 1.2,0.1 1.8,0.3 l 0,0 c 0.1,0 0.3,0.1 0.4,0.1 0.3,0.2 0.4,0.3 0.6,0.5 0.1,0.2 0.2,0.4 0.4,0.6 0.1,0.2 0.2,0.3 0.2,0.5 l 0.2,0 -0.7,-2.6 -12.9,0 0,0.3 11,15 z"
         style="fill:#000000;fill-opacity:1;fill-rule:evenodd;stroke:none"
         id="path34" /><path
         d="m 318.5,763.9 5.8,0 0,-0.9 -5.8,0 0,0.9 z"
         style="fill:#000000;fill-opacity:1;fill-rule:evenodd;stroke:none"
         id="path36" /><path
         d="m 332.9,771.4 0,-0.1 c 0,0 0,0 0,0 -0.4,0 -0.7,-0.1 -1,-0.3 0,0 -0.1,-0.1 -0.2,-0.1 l 0,0 c -0.1,-0.1 -0.2,-0.2 -0.3,-0.4 -0.1,-0.2 -0.2,-0.5 -0.2,-0.8 0,-0.1 0,-0.1 0,-0.2 l 0,-12 c 0,-0.1 0,-0.1 0,-0.1 0,-0.3 0.1,-0.6 0.2,-0.8 0.1,-0.2 0.2,-0.3 0.3,-0.4 0.1,-0.1 0.2,-0.1 0.3,-0.2 0.3,-0.1 0.6,-0.2 0.9,-0.2 l 0,0 0,-0.2 -5,0 0,0.2 0,0 c 0,0 0,0 0.1,0 0.3,0 0.6,0.1 0.9,0.2 0.1,0.1 0.1,0.1 0.2,0.2 l 0,0 c 0.1,0.1 0.2,0.2 0.3,0.3 0.1,0.3 0.2,0.5 0.2,0.9 0,0 0,0 0,0.1 l 0,12 0,0 c 0,0.1 0,0.1 0,0.2 0,0.3 0,0.6 -0.2,0.8 -0.1,0.2 -0.2,0.3 -0.3,0.4 l 0,0 c -0.1,0 -0.1,0 -0.2,0.1 -0.3,0.2 -0.6,0.2 -1,0.2 l 0,0 0,0.2 5,0 z"
         style="fill:#000000;fill-opacity:1;fill-rule:evenodd;stroke:none"
         id="path38" /><path
         d="m 353.2,771.4 0,-0.1 0,0 c -0.4,-0.1 -0.7,-0.1 -1,-0.3 l 0,0 c 0,0 0,0 -0.1,0 -0.1,-0.1 -0.2,-0.2 -0.3,-0.4 -0.1,-0.1 -0.1,-0.1 -0.1,-0.2 -0.2,-0.4 -0.2,-0.7 -0.2,-1.1 0,-0.1 0,-0.2 0,-0.2 l 0,-13.9 -0.1,0 -12.2,13.6 0,-9.7 c 0,-0.1 0,-0.2 0,-0.3 0,-0.5 0.1,-1 0.1,-1.6 0,-0.3 0.1,-0.5 0.3,-0.8 l 0,0 c 0.1,-0.1 0.3,-0.3 0.4,-0.4 0.3,-0.1 0.6,-0.2 0.9,-0.2 0,0 0.1,0 0.1,0 l 0,-0.2 -4,0 0,0.2 0,0 0,0 c 0.4,0 0.7,0.1 1,0.3 0,0 0,0 0.1,0 l 0,0 c 0.1,0.1 0.2,0.2 0.3,0.4 0.1,0.1 0.1,0.3 0.2,0.5 l 0,0 c 0.1,0.6 0.1,1.2 0.1,1.8 0,0.1 0,0.1 0,0.2 l 0,10.3 -0.5,0.6 c -0.3,0.5 -0.7,0.8 -1.1,1 l 0,0 c -0.3,0.2 -0.7,0.3 -1.1,0.3 l 0,0.2 3,0 12,-13.4 0,10.2 c 0,0.2 0,0.2 0,0.3 0,0.5 0,1 -0.1,1.5 0,0.2 -0.1,0.3 -0.2,0.5 -0.1,0.2 -0.2,0.3 -0.3,0.4 l 0,0 c 0,0 -0.1,0.1 -0.2,0.1 -0.3,0.2 -0.6,0.3 -0.9,0.3 -0.1,0 -0.1,0 -0.1,0 l 0,0.1 4,0 z"
         style="fill:#000000;fill-opacity:1;fill-rule:evenodd;stroke:none"
         id="path40" /><path
         d="m 365.6,768.4 -0.1,0 0,0 c -0.1,0.5 -0.2,0.9 -0.5,1.3 -0.1,0.3 -0.3,0.5 -0.5,0.7 l 0,0 c -0.2,0.2 -0.4,0.3 -0.6,0.5 -0.5,0.3 -1,0.4 -1.5,0.4 -0.1,0 -0.1,0 -0.2,0 l 0,0 c 0,0 0,0 0,0 -0.6,0 -1.1,-0.1 -1.6,-0.4 0,0 0,0 0,0 l 0,0 c -0.5,-0.3 -0.8,-0.6 -1.1,-1.1 0,0 0,-0.1 0,-0.1 l 0,0 c -0.3,-0.6 -0.4,-1.1 -0.4,-1.7 0,-0.5 0.1,-0.9 0.2,-1.3 0.1,-0.2 0.1,-0.2 0.2,-0.4 0.2,-0.2 0.3,-0.4 0.6,-0.6 l 0,0 c 0.3,-0.4 0.6,-0.6 1,-0.9 0.4,-0.2 1,-0.5 1.7,-0.9 0.1,-0.1 0.3,-0.2 0.5,-0.3 0.8,-0.5 1.5,-1 2.2,-1.7 0.2,-0.1 0.3,-0.3 0.5,-0.6 0.3,-0.6 0.5,-1.1 0.5,-1.7 0,-0.1 0,-0.2 -0.1,-0.2 l 0,0 c 0,-0.8 -0.1,-1.4 -0.5,-2 l 0,0 0,0 c -0.3,-0.6 -0.8,-1.1 -1.5,-1.5 0,0 0,0 -0.1,0 l 0,0 c -0.7,-0.4 -1.5,-0.6 -2.4,-0.6 -0.1,0 -0.1,0 -0.2,0 l 0,0 c 0,0 0,0 -0.1,0 -0.5,0 -1,0 -1.6,0.2 l 0,0 c -0.5,0.1 -1,0.3 -1.5,0.6 -0.2,0 -0.3,0 -0.5,0.1 0,0 0,0 0,0 -0.1,0 -0.1,0 -0.2,-0.1 0,0 0,0 0,-0.1 0,0 -0.1,0 -0.1,0 -0.1,-0.2 -0.1,-0.5 -0.1,-0.7 l -0.2,0 0,4 0.2,0 c 0,-0.6 0.2,-1 0.5,-1.5 0.3,-0.5 0.5,-0.8 1,-1.2 0.1,-0.1 0.2,-0.2 0.4,-0.3 0.7,-0.4 1.4,-0.6 2.1,-0.6 0.1,0 0.1,0 0.2,0 0,0 0.1,0 0.2,0 0.6,0 1.1,0.2 1.7,0.5 l 0,0 0,0 c 0.4,0.2 0.7,0.5 0.9,0.9 0,0.1 0.1,0.1 0.1,0.2 l 0,0 c 0.2,0.4 0.3,0.8 0.3,1.3 0,0 0,0 0,0.1 0,0.5 -0.1,1 -0.4,1.5 -0.1,0.2 -0.3,0.3 -0.4,0.5 l 0,0 c -0.6,0.6 -1.2,1 -1.9,1.4 -0.2,0.2 -0.4,0.2 -0.6,0.3 -0.7,0.5 -1.3,0.7 -1.7,1 -0.4,0.3 -0.7,0.5 -1.1,0.9 l 0,0 c -0.3,0.3 -0.5,0.5 -0.7,0.9 -0.1,0.1 -0.1,0.2 -0.2,0.4 -0.2,0.5 -0.3,1 -0.3,1.6 0,0.1 0,0.1 0,0.1 l 0,0 c 0,0.8 0.2,1.4 0.5,2.1 0.1,0 0.1,0 0.1,0 l 0,0 c 0.4,0.7 0.9,1.2 1.6,1.6 0,0 0,0 0,0.1 l 0,0 c 0.8,0.4 1.5,0.6 2.4,0.6 0.1,0 0.1,0 0.1,0 l 0,0 c 0.8,0 1.4,-0.1 2.2,-0.4 0.1,0 0.2,-0.1 0.4,-0.1 0,0 0,0 0,0 0.2,0 0.4,0.2 0.5,0.5 l 0.2,0 -0.1,-3.3 z"
         style="fill:#000000;fill-opacity:1;fill-rule:evenodd;stroke:none"
         id="path42" /><path
         d="m 383.5,768.4 -0.2,0 c -0.1,1 -0.3,1.7 -0.9,1.9 -0.5,0.4 -1.1,0.5 -1.8,0.5 0,0 -0.1,0 -0.1,0 l -3.2,0 0,-13.3 c 0,-0.1 0,-0.1 0,-0.2 0,-0.3 0.1,-0.5 0.2,-0.7 0.2,-0.3 0.4,-0.5 0.6,-0.6 0.3,-0.2 0.5,-0.2 0.8,-0.2 0.1,0 0.1,0 0.2,0 l 0,-0.2 -5.1,0 0,0.2 0,0 c 0.4,0 0.7,0.1 1,0.3 0.1,0 0.1,0 0.2,0.1 0.1,0.1 0.2,0.2 0.3,0.4 0.1,0.2 0.2,0.4 0.2,0.8 0,0 0,0.1 0,0.1 l 0,13.3 -3.1,0 c -0.1,0 -0.1,0 -0.2,0 -0.6,0 -1.2,-0.1 -1.8,-0.5 -0.5,-0.2 -0.8,-0.9 -0.9,-1.9 l -0.1,0 0,3.8 0.1,0 0,0 c 0.1,-0.1 0.2,-0.2 0.3,-0.4 l 0,0 c 0.1,0 0.1,-0.1 0.2,-0.2 0.1,0 0.1,0 0.1,0 0.2,-0.1 0.4,-0.1 0.5,-0.1 0.3,-0.1 0.5,-0.1 0.7,-0.1 l 0,0 10.2,0 c 0.1,0 0.1,0 0.1,0 0.4,0 0.7,0.1 0.9,0.3 0.3,0.1 0.5,0.3 0.6,0.5 l 0.2,0 0,-3.8 z"
         style="fill:#000000;fill-opacity:1;fill-rule:evenodd;stroke:none"
         id="path44" /><path
         d="m 392.7,771.4 0,-0.1 c -0.1,0 -0.1,0 -0.1,0 -0.3,0 -0.7,-0.1 -0.9,-0.3 -0.1,0 -0.2,-0.1 -0.3,-0.1 l 0,0 c -0.1,-0.1 -0.2,-0.2 -0.2,-0.4 -0.2,-0.2 -0.3,-0.5 -0.3,-0.8 0,-0.1 0,-0.1 0,-0.2 l 0,-12 c 0,0 0,-0.1 0,-0.1 0,-0.3 0.1,-0.6 0.3,-0.8 0,-0.1 0.1,-0.3 0.3,-0.4 l 0,0 c 0,-0.1 0.1,-0.1 0.2,-0.1 0.3,-0.2 0.6,-0.3 0.9,-0.3 0.1,0 0.1,0 0.1,0 l 0,-0.2 -5.1,0 0,0.2 0,0 c 0,0 0,0 0.1,0 0.3,0 0.6,0.1 0.9,0.2 0.1,0.1 0.1,0.1 0.2,0.2 l 0,0 c 0.1,0.1 0.2,0.2 0.3,0.4 0.2,0.2 0.2,0.5 0.2,0.8 0,0 0,0.1 0,0.1 l 0,12 c 0,0.1 0,0.1 0,0.2 0,0.3 0,0.6 -0.2,0.8 -0.1,0.2 -0.2,0.3 -0.3,0.4 l 0,0 c -0.1,0 -0.1,0 -0.2,0.1 -0.3,0.2 -0.6,0.2 -1,0.2 l 0,0 0,0.2 5.1,0 z"
         style="fill:#000000;fill-opacity:1;fill-rule:evenodd;stroke:none"
         id="path46" /><path
         d="m 410.7,768.4 -0.2,0 c -0.1,1 -0.4,1.7 -0.9,1.9 -0.6,0.4 -1.1,0.5 -1.8,0.5 0,0 -0.1,0 -0.1,0 l -3.2,0 0,-13.3 c 0,-0.1 0,-0.1 0,-0.2 0,-0.3 0.1,-0.5 0.2,-0.8 0.2,-0.2 0.3,-0.4 0.6,-0.5 0.3,-0.2 0.5,-0.2 0.8,-0.2 0,0 0.1,0 0.1,0 l 0,-0.2 -5,0 0,0.2 0,0 0,0 c 0.4,0 0.7,0.1 1,0.3 0.1,0 0.1,0 0.2,0.1 l 0,0 c 0.1,0.1 0.2,0.2 0.3,0.3 0.1,0.3 0.2,0.5 0.2,0.9 0,0 0,0.1 0,0.1 l 0,13.3 -3.2,0 c 0,0 0,0 -0.1,0 -0.7,0 -1.2,-0.1 -1.8,-0.5 -0.5,-0.2 -0.8,-0.9 -0.9,-1.9 l -0.2,0 0,3.8 0.2,0 0,0 c 0.1,-0.1 0.2,-0.2 0.3,-0.4 l 0,0 c 0.1,0 0.1,-0.1 0.2,-0.1 0,-0.1 0.1,-0.1 0.1,-0.1 0.2,-0.1 0.3,-0.1 0.5,-0.1 l 0,0 c 0.2,-0.1 0.4,-0.1 0.7,-0.1 l 0,0 10.2,0 c 0.1,0 0.1,0 0.1,0 0.3,0 0.6,0.1 0.9,0.3 0.3,0.1 0.4,0.3 0.6,0.5 l 0.2,0 0,-3.8 z"
         style="fill:#000000;fill-opacity:1;fill-rule:evenodd;stroke:none"
         id="path48" /><path
         d="m 428.9,755.6 -3.3,0 0,2.6 -0.1,0.1 0,0 c -0.1,-0.2 -0.2,-0.4 -0.3,-0.6 -0.4,-0.8 -0.9,-1.3 -1.7,-1.7 0,0 0,-0.1 0,-0.1 l 0,0 c -0.9,-0.5 -1.8,-0.7 -2.8,-0.7 -0.1,0 -0.1,0 -0.1,0 0,0 -0.1,0 -0.1,0 -1.1,0 -1.9,0.3 -2.9,0.8 0,0 0,0 0,0 l 0,0 c -0.1,0.1 -0.1,0.1 -0.1,0.1 -0.8,0.4 -1.4,1 -1.9,1.8 0,0.1 0,0.1 0,0.1 l 0,0 c -0.3,0.6 -0.5,1.1 -0.6,1.8 -0.1,0.6 -0.1,1.1 -0.1,1.8 0,0 0,0 0,0 l 0,7.9 0,0 c 0,0 0,0 0,0.1 0,0.4 -0.1,0.7 -0.3,1.1 -0.2,0.3 -0.6,0.5 -1.3,0.6 l 0,0.1 5,0 0,-0.1 c -0.1,0 -0.1,0 -0.1,0 -0.3,0 -0.6,-0.1 -0.9,-0.3 -0.2,-0.1 -0.3,-0.2 -0.5,-0.4 l 0,0 0,0 c -0.2,-0.3 -0.3,-0.7 -0.3,-1.1 l 0,0 0,-7.7 c 0,-0.2 0,-0.4 0,-0.6 0,-1 0.2,-1.9 0.5,-2.9 l 0,0 c 0.1,-0.2 0.1,-0.4 0.3,-0.5 0.3,-0.6 0.7,-1.1 1.3,-1.4 l 0,0 c 0,-0.1 0.1,-0.1 0.2,-0.2 0.7,-0.4 1.3,-0.5 2.1,-0.5 l 0,0 0,0 c 0.5,0 0.8,0 1.3,0.2 l 0,0 c 0.4,0.1 0.8,0.2 1.1,0.4 0.1,0.1 0.2,0.1 0.3,0.2 1.3,0.9 2,2.3 2,4.3 l 0,8.7 0,0 c 0,0 0,0 0,0 0,0.4 -0.1,0.8 -0.3,1.2 -0.2,0.3 -0.7,0.5 -1.4,0.6 l 0,0.1 5,0 0,-0.1 c -0.7,0 -1.2,-0.3 -1.4,-0.6 l 0,0 c 0,0 0,-0.1 0,-0.1 -0.2,-0.3 -0.3,-0.7 -0.3,-1.1 l 0,-12 c 0,0 0,-0.1 0,-0.1 0,-0.3 0,-0.6 0.2,-0.9 0,0 0,0 0,0 0.1,-0.2 0.2,-0.3 0.4,-0.4 0.1,0 0.1,-0.1 0.1,-0.1 0.4,-0.1 0.6,-0.2 1,-0.2 l 0,-0.2 z"
         style="fill:#000000;fill-opacity:1;fill-rule:evenodd;stroke:none"
         id="path50" /><path
         d="m 445.4,768.4 -0.2,0 c -0.1,1 -0.4,1.7 -0.9,1.9 -0.6,0.4 -1.1,0.5 -1.8,0.5 0,0 -0.1,0 -0.1,0 l -3.2,0 0,-13.3 0,0 c 0,-0.1 0,-0.1 0,-0.2 0,-0.3 0.1,-0.5 0.2,-0.8 0.2,-0.2 0.4,-0.4 0.6,-0.5 0.2,-0.2 0.5,-0.2 0.8,-0.2 0,0 0.1,0 0.2,0 l 0,-0.2 -5.1,0 0,0.2 0,0 0,0 c 0.4,0 0.7,0.1 1,0.3 0.1,0 0.1,0 0.2,0.1 0.1,0.1 0.2,0.2 0.3,0.3 0.1,0.3 0.2,0.5 0.2,0.9 0,0 0,0.1 0,0.1 l 0,13.3 -3.1,0 c -0.1,0 -0.1,0 -0.2,0 -0.6,0 -1.2,-0.1 -1.8,-0.5 -0.5,-0.2 -0.8,-0.9 -0.9,-1.9 l -0.2,0 0,3.8 0.2,0 c 0.1,-0.1 0.1,-0.2 0.3,-0.4 0,0 0.1,-0.1 0.2,-0.1 0,-0.1 0.1,-0.1 0.1,-0.1 l 0,0 c 0.2,-0.1 0.3,-0.1 0.5,-0.1 l 0,0 c 0.2,-0.1 0.4,-0.1 0.6,-0.1 l 0,0 10.3,0 c 0,0 0,0 0.1,0 0.3,0 0.6,0.1 0.9,0.3 0.2,0.1 0.4,0.3 0.6,0.5 l 0.2,0 0,-3.8 z"
         style="fill:#000000;fill-opacity:1;fill-rule:evenodd;stroke:none"
         id="path52" /><path
         d="m 455.3,771.3 0,0.1 9.5,0 0,-2.4 -0.2,0 0,0 c 0,0.4 -0.1,0.7 -0.3,1 -0.1,0.1 -0.2,0.3 -0.2,0.4 l 0,0 c -0.2,0.1 -0.3,0.2 -0.5,0.3 -0.3,0.2 -0.6,0.3 -1,0.3 0,0 -0.1,0 -0.2,0 l -3.8,0 0,-7.2 3.6,0 0,0 c 0,0 0.1,0 0.2,0 0.3,0 0.6,0 0.9,0.2 0.1,0.1 0.2,0.1 0.2,0.2 l 0,0 c 0.1,0.1 0.2,0.2 0.2,0.3 0.2,0.3 0.3,0.5 0.3,0.9 l 0.2,0 0,-3.6 -0.2,0 0,0 c 0,0.3 -0.1,0.5 -0.2,0.8 -0.1,0.1 -0.1,0.2 -0.2,0.3 l 0,0 c -0.1,0.1 -0.2,0.1 -0.3,0.2 -0.3,0.2 -0.6,0.2 -0.9,0.2 -0.1,0 -0.2,0 -0.2,0 l -3.6,0 0,-5.7 0,0 c 0,-0.1 0,-0.1 0,-0.1 0,-0.3 0.1,-0.6 0.2,-0.9 0.1,-0.1 0.2,-0.2 0.2,-0.3 l 0,0 c 0.2,-0.1 0.3,-0.2 0.4,-0.3 0.2,-0.1 0.4,-0.2 0.7,-0.2 l 0,0 0.2,0 0,-0.1 -5.1,0 0,0.1 0.3,0 0,0 c 0.3,0 0.5,0.1 0.7,0.2 0.1,0.1 0.2,0.2 0.3,0.3 l 0,0 c 0.1,0.1 0.2,0.2 0.2,0.3 0.2,0.2 0.2,0.5 0.2,0.9 0,0 0,0 0,0.1 l 0,11.9 c 0.1,0.1 0.1,0.2 0.1,0.2 0,0.4 -0.1,0.6 -0.3,0.9 0,0.1 -0.1,0.2 -0.2,0.3 -0.1,0.1 -0.2,0.1 -0.2,0.2 -0.3,0.1 -0.5,0.2 -0.8,0.2 l 0,0 -0.2,0 z"
         style="fill:#000000;fill-opacity:1;fill-rule:evenodd;stroke:none"
         id="path54" /><path
         d="m 484.3,755.6 -3.3,0 0,2.6 0,0.1 c -0.2,-0.2 -0.2,-0.4 -0.4,-0.6 -0.4,-0.8 -0.9,-1.3 -1.7,-1.7 0,0 0,0 0,-0.1 l 0,0 c -0.9,-0.4 -1.8,-0.7 -2.8,-0.7 0,0 0,0 -0.1,0 0,0 0,0 -0.1,0 -1,0 -1.9,0.3 -2.9,0.8 0,0 0,0 0,0 0,0.1 0,0.1 -0.1,0.1 -0.8,0.4 -1.4,1 -1.8,1.9 -0.1,0 -0.1,0 -0.1,0 -0.3,0.6 -0.5,1.1 -0.6,1.8 l 0,0 c 0,0.6 -0.1,1.2 -0.1,1.8 l 0,0 0,7.9 c 0,0 0,0 0,0.1 0,0.4 -0.1,0.7 -0.3,1.1 -0.2,0.3 -0.6,0.5 -1.3,0.6 l 0,0.1 5,0 0,-0.1 0,0 c -0.1,0 -0.1,0 -0.1,0 -0.3,0 -0.6,-0.1 -0.9,-0.3 -0.2,-0.1 -0.3,-0.2 -0.4,-0.3 l 0,0 c 0,0 0,-0.1 -0.1,-0.1 -0.2,-0.3 -0.3,-0.7 -0.3,-1.1 l 0,0 0,-7.7 c 0,-0.2 0,-0.4 0,-0.5 0,-1.1 0.2,-2 0.5,-3 l 0,0 c 0.1,-0.2 0.2,-0.4 0.3,-0.5 0.3,-0.6 0.7,-1 1.3,-1.4 l 0,0 c 0.1,-0.1 0.1,-0.1 0.2,-0.2 0.7,-0.3 1.3,-0.5 2.1,-0.5 0,0 0,0 0,0 l 0,0 c 0.5,0 0.9,0 1.3,0.2 0.4,0.1 0.8,0.2 1.1,0.4 0.2,0.1 0.2,0.2 0.3,0.2 1.3,0.9 2,2.3 2,4.3 l 0,8.7 0,0 0,0 c 0,0.5 -0.1,0.8 -0.3,1.2 -0.2,0.3 -0.7,0.5 -1.4,0.6 l 0,0.1 5,0 0,-0.1 c -0.7,0 -1.2,-0.3 -1.4,-0.6 -0.2,-0.4 -0.3,-0.8 -0.3,-1.2 l 0,-11.9 c 0,-0.1 0,-0.1 0,-0.2 0,-0.3 0.1,-0.6 0.2,-0.8 l 0,-0.1 c 0.1,-0.1 0.3,-0.3 0.5,-0.4 0,0 0,0 0.1,0 0.3,-0.2 0.6,-0.2 0.9,-0.3 l 0,-0.2 z m -10,19.3 0,0 0,0 c 0.2,0 0.4,0 0.5,-0.1 0.1,-0.1 0.2,-0.1 0.3,-0.2 l 0,0 c 0,-0.1 0.1,-0.1 0.1,-0.2 0.1,-0.1 0.1,-0.3 0.1,-0.5 l 0,0 0,0 c 0,-0.2 0,-0.4 -0.1,-0.5 0,-0.1 -0.1,-0.1 -0.1,-0.2 l 0,0 c -0.1,-0.1 -0.2,-0.1 -0.3,-0.2 -0.1,-0.1 -0.3,-0.1 -0.4,-0.1 l -0.1,0 c -0.1,0 -0.3,0 -0.4,0.1 -0.1,0.1 -0.2,0.1 -0.3,0.2 0,0.1 -0.1,0.1 -0.1,0.2 -0.1,0.2 -0.2,0.3 -0.2,0.5 l 0,0 c 0,0.2 0.1,0.3 0.1,0.5 0.1,0.1 0.2,0.1 0.2,0.2 l 0,0 c 0.1,0.1 0.2,0.1 0.3,0.2 0.1,0 0.3,0.1 0.4,0.1 l 0,0 z m 4.4,0 0,0 0,0 c 0.2,0 0.3,0 0.5,-0.1 0.2,-0.1 0.3,-0.2 0.4,-0.4 0.1,-0.2 0.1,-0.3 0.1,-0.5 l 0,0 c 0,-0.2 0,-0.3 -0.1,-0.5 -0.1,-0.1 -0.1,-0.1 -0.2,-0.2 0,-0.1 -0.1,-0.1 -0.2,-0.2 -0.1,-0.1 -0.3,-0.1 -0.5,-0.1 -0.2,0 -0.3,0 -0.5,0.1 -0.1,0.1 -0.1,0.1 -0.2,0.2 -0.1,0.1 -0.1,0.1 -0.2,0.2 0,0.2 -0.1,0.3 -0.1,0.5 0,0.2 0.1,0.3 0.1,0.5 0.1,0.1 0.1,0.1 0.2,0.2 l 0,0 c 0.1,0.1 0.1,0.2 0.3,0.2 0.1,0.1 0.2,0.1 0.4,0.1 l 0,0 z"
         style="fill:#000000;fill-opacity:1;fill-rule:evenodd;stroke:none"
         id="path56" /><path
         d="m 488.3,771.2 -0.3,0 0,0.2 5.5,0 0,0 c 0.1,0 0.1,0 0.2,0 0.7,0 1.4,-0.1 2.1,-0.4 l 0,0 c 0.1,0 0.3,-0.1 0.4,-0.2 0.4,-0.2 0.7,-0.5 1,-0.8 0.1,-0.2 0.3,-0.3 0.3,-0.5 0.2,-0.3 0.3,-0.5 0.4,-0.8 0.1,-0.5 0.2,-0.9 0.2,-1.4 l 0,0 c 0,-0.6 -0.1,-1.1 -0.3,-1.7 -0.1,-0.1 -0.1,-0.1 -0.2,-0.2 -0.2,-0.5 -0.5,-0.8 -0.9,-1.1 -0.2,-0.1 -0.3,-0.2 -0.4,-0.3 -0.5,-0.2 -0.9,-0.4 -1.5,-0.5 l 0,0 0,0 c 0,0 0,0 0,0 1.1,-0.6 1.9,-1.4 2.5,-2.5 0,-0.1 0.1,-0.2 0.1,-0.3 l 1.4,-2.4 c 0.1,-0.1 0.2,-0.2 0.2,-0.3 0.4,-0.7 0.8,-1.2 1.4,-1.7 0.1,-0.1 0.2,-0.2 0.3,-0.2 0.3,-0.2 0.5,-0.3 0.8,-0.3 l 0,-0.2 -2.8,0 c -0.1,0.2 -0.3,0.3 -0.3,0.5 l -0.4,0.4 c -0.1,0.1 -0.2,0.3 -0.3,0.5 -0.1,0.2 -0.2,0.3 -0.3,0.4 l -1.8,3.1 0,0 c -0.1,0 -0.1,0 -0.1,0.1 -0.3,0.5 -0.7,1 -1.1,1.5 l 0,0 c -0.3,0.3 -0.6,0.6 -1,0.8 -0.1,0 -0.1,0 -0.1,0 l 0,0 c -0.3,0.2 -0.6,0.3 -1,0.4 l 0,0 c -0.3,0 -0.5,0 -0.9,0 0,0 0,0 0,0 l 0,-5.8 0,0 c 0,0 0,-0.1 0,-0.1 0,-0.4 0,-0.6 0.2,-0.8 0.1,-0.3 0.3,-0.5 0.5,-0.6 0.3,-0.1 0.5,-0.2 0.8,-0.2 0.1,0 0.1,0 0.2,0 l 0,-0.2 -5.1,0 0,0.2 0,0 c 0.4,0 0.6,0.1 0.9,0.2 l 0,0 c 0,0 0.1,0 0.1,0 0.2,0.1 0.4,0.3 0.5,0.5 0.2,0.3 0.2,0.6 0.2,0.9 0,0.1 0,0.1 0,0.1 l 0,12 0,0 c 0,0.1 0,0.1 0,0.2 0,0.3 0,0.6 -0.2,0.8 -0.1,0.2 -0.1,0.2 -0.2,0.4 -0.1,0 -0.2,0.1 -0.3,0.1 -0.2,0.2 -0.4,0.2 -0.7,0.2 z m 3.1,-7.5 0.9,0 c 0,0 0.1,0 0.2,0 0.8,0 1.4,0.2 2.1,0.5 0.1,0 0.2,0 0.3,0.1 0.5,0.3 0.8,0.6 1,1 l 0,0 0,0 c 0.3,0.6 0.4,1.1 0.4,1.8 0,0 0,0 0,0.1 l 0,0 c 0,0.6 -0.1,1.2 -0.4,1.8 l 0,0 c 0,0.1 0,0.2 -0.1,0.3 -0.3,0.5 -0.6,0.8 -1.1,1.1 l 0,0 c 0,0.1 0,0.1 -0.1,0.1 -0.6,0.4 -1.3,0.5 -2,0.5 -0.1,0 -0.2,0 -0.3,0 0,0 0,0 0,0 -0.3,0 -0.6,0 -0.9,-0.1 l 0,-7.2 z"
         style="fill:#000000;fill-opacity:1;fill-rule:evenodd;stroke:none"
         id="path58" /><path
         d="m 76.8,772.1 0,-0.6 c -0.1,0 -0.1,0 -0.2,0 -1,0 -1.9,-0.3 -2.8,-0.8 -0.3,-0.2 -0.5,-0.3 -0.8,-0.5 -1,-0.9 -1.5,-2.4 -1.5,-4.4 l 0,-39.6 c 0,-2 0.5,-3.5 1.6,-4.4 l 0,0 c 0.3,-0.2 0.6,-0.4 0.9,-0.6 0.9,-0.5 1.8,-0.8 2.8,-0.8 l 0,-0.5 -15.7,0 0,0.5 0,0 c 0,0 0.1,0 0.1,0 1,0 1.9,0.2 2.8,0.8 0.3,0.2 0.5,0.3 0.8,0.6 1.1,0.8 1.6,2.3 1.6,4.4 l 0,39.6 c 0,2.2 -0.5,3.7 -1.6,4.5 -0.2,0.1 -0.4,0.2 -0.6,0.4 -0.9,0.5 -1.9,0.8 -2.9,0.8 -0.1,0 -0.1,0 -0.2,0 l 0,0.6 15.7,0 z"
         style="fill:#878786;fill-opacity:1;fill-rule:evenodd;stroke:none"
         id="path60" /><path
         d="m 81.8,771.5 0,0.6 19,0 0,0 c 0.1,0 0.2,0 0.3,0 2.5,0 4.6,-0.3 7.1,-0.7 l 0,0 c 2.2,-0.5 4,-1.1 6,-2 l 0,0 c 0.9,-0.4 1.6,-0.7 2.4,-1.2 0.8,-0.5 1.5,-0.9 2.2,-1.4 1.3,-0.9 2.2,-1.8 3.3,-3 l 0,0 c 1.5,-1.5 2.5,-3 3.6,-4.8 0.2,-0.3 0.2,-0.4 0.4,-0.7 l 0,0 c 1.1,-2.1 1.9,-4 2.5,-6.4 l 0,0 c 0.5,-2.3 0.8,-4.4 0.8,-6.8 0,0 0,-0.1 0,-0.1 l 0,0 c 0,0 0,-0.1 0,-0.1 0,-2.4 -0.3,-4.4 -0.8,-6.7 l 0,0 c -0.6,-2.2 -1.3,-4 -2.3,-6 -0.2,-0.2 -0.2,-0.3 -0.4,-0.5 -0.9,-1.7 -1.9,-3 -3.3,-4.4 -1.5,-1.7 -2.9,-2.9 -4.8,-4.1 -0.2,-0.1 -0.4,-0.2 -0.5,-0.3 -1.7,-0.9 -3.2,-1.6 -5,-2.1 -2.6,-0.7 -4.8,-0.9 -7.4,-0.9 -0.4,0 -0.6,0 -1,0 l -22.1,0 0,0.5 0.7,0 0,0 c 0,0 0.1,0 0.2,0 0.7,0 1.3,0.2 1.9,0.5 0.6,0.4 1,0.8 1.3,1.4 l 0,0 c 0.1,0 0.1,0.1 0.2,0.2 0.7,1.2 1,2.3 1,3.7 l 0,39.4 c 0,0.1 0,0.1 0,0.2 0,1.1 -0.2,2.1 -0.6,3.1 -0.1,0.2 -0.2,0.3 -0.3,0.5 -0.3,0.6 -0.8,1.1 -1.4,1.5 l 0,0 c -0.7,0.4 -1.4,0.6 -2.3,0.6 0,0 0,0 0,0 l -0.7,0 z m 10.4,-1.9 0,-41.4 c 0,-2 0.3,-3.5 0.9,-4.4 0.4,-0.6 0.8,-1 1.4,-1.4 0.5,-0.2 0.9,-0.4 1.4,-0.5 l 0,0 c 1.8,-0.3 3.2,-0.4 5,-0.4 0.2,0 0.5,0 0.7,0 l 0,0 c 0.3,0 0.6,0 0.8,0 3,0 5.5,0.3 8.3,1 2.5,0.8 4.8,2.5 7.1,5 1,1.1 1.7,2.2 2.4,3.4 0.7,1.3 1.2,2.3 1.7,3.7 1.1,3.1 1.6,6 1.6,9.4 0,0.2 0,0.4 0,0.6 0,0.1 0,0.1 0,0.1 0,3.2 -0.4,6 -1.2,9.1 l 0,0 c -0.6,2.3 -1.4,4.1 -2.6,6.1 -0.4,0.7 -0.8,1.3 -1.2,2 l 0,0 c -1.8,2.5 -3.7,4.2 -6.3,5.7 -0.4,0.2 -0.7,0.4 -1.1,0.6 l 0,0 c -3.3,1.5 -6.4,2.3 -10.1,2.3 -0.2,0 -0.4,0 -0.6,-0.1 l 0,0 c -2.9,0 -5.4,-0.3 -8.2,-0.8 z"
         style="fill:#878786;fill-opacity:1;fill-rule:evenodd;stroke:none"
         id="path62" /><path
         d="m 159.3,762.1 -0.6,0 0,0 c -0.2,1.6 -0.6,2.9 -1.4,4.4 -0.5,0.8 -1,1.5 -1.7,2.2 l 0,0 c -0.6,0.6 -1.2,1.1 -2,1.5 -1.6,0.9 -3.1,1.3 -5,1.3 -1.8,0 -3.4,-0.4 -4.9,-1.3 -0.1,0 -0.2,-0.1 -0.2,-0.1 l 0,0 c -1.3,-0.8 -2.3,-1.8 -3.1,-3.2 -0.1,-0.2 -0.2,-0.4 -0.3,-0.6 -0.9,-1.8 -1.2,-3.5 -1.2,-5.4 0,-0.1 0,-0.2 0,-0.2 l 0,0 c 0,-0.1 0,-0.2 0,-0.3 0,-1.5 0.2,-2.7 0.7,-4.1 l 0,0 c 0.2,-0.5 0.4,-0.9 0.7,-1.4 0.4,-0.7 0.8,-1.3 1.4,-1.9 l 0,0 c 1.1,-1.1 2.1,-1.9 3.3,-2.7 1.3,-0.9 3,-1.9 5.2,-3.2 l 0,0 c 0.2,-0.1 0.4,-0.3 0.7,-0.4 3,-1.7 5.3,-3.5 7.8,-5.9 2,-2.1 3,-5 3,-8.6 l 0,0 c 0,-2.3 -0.6,-4.3 -1.7,-6.4 l 0,0 c 0,-0.1 -0.1,-0.2 -0.2,-0.4 -1.1,-2 -2.6,-3.5 -4.7,-4.7 -2.4,-1.4 -4.8,-2 -7.6,-2 -0.2,0 -0.3,0 -0.5,0 -0.1,0 -0.2,0 -0.3,0 -1.8,0 -3.4,0.2 -5.1,0.8 l 0,0 c -1.7,0.5 -3.2,1 -4.8,1.9 l 0,0 c -0.4,0.2 -0.9,0.3 -1.4,0.3 0,0 0,0 0,0 -0.2,0 -0.4,0 -0.5,-0.1 -0.1,-0.1 -0.3,-0.2 -0.3,-0.3 0,0 -0.1,-0.1 -0.1,-0.1 l 0,0 c -0.2,-0.8 -0.4,-1.5 -0.6,-2.3 l -0.5,0 0,13 0.5,0 c 0.8,-3.8 2.4,-6.7 4.7,-8.6 0.6,-0.5 1.1,-0.9 1.8,-1.3 2,-1.2 4,-1.7 6.4,-1.7 0.1,0 0.2,0 0.3,0 0.2,0 0.4,0 0.6,0 1.9,0 3.6,0.5 5.4,1.5 0,0 0,0 0.1,0 l 0,0 c 1.1,0.7 2,1.6 2.7,2.8 0.1,0.3 0.3,0.5 0.4,0.8 0.6,1.4 0.9,2.7 0.9,4.3 0,0.1 0,0.3 0,0.4 0,1.9 -0.5,3.5 -1.4,5.1 -0.3,0.6 -0.7,1.2 -1.2,1.7 l 0,0 c -2,2.1 -4,3.6 -6.5,5 -0.4,0.3 -0.8,0.4 -1.2,0.7 -2.3,1.3 -4.1,2.4 -5.2,3.1 -1.4,0.9 -2.4,1.8 -3.5,3 l 0,0 c -0.8,0.8 -1.4,1.6 -2,2.6 -0.3,0.6 -0.6,1.1 -0.8,1.7 l 0,0 c -0.7,1.8 -1,3.5 -1,5.4 0,2.7 0.5,4.9 1.8,7.3 l 0,0 c 0.1,0 0.1,0.1 0.2,0.2 1.3,2.3 2.8,3.8 5,5.1 l 0,0 c 0.1,0.1 0.1,0.1 0.1,0.1 2.4,1.4 4.6,2 7.3,2 0.1,0 0.2,0 0.3,0 l 0,0 c 2.4,-0.1 4.4,-0.4 6.7,-1.2 0.4,-0.2 0.8,-0.3 1.3,-0.3 0,0 0.1,0 0.1,0 0.7,0 1.2,0.5 1.5,1.6 l 0.6,0 0,-11.1 z"
         style="fill:#878786;fill-opacity:1;fill-rule:evenodd;stroke:none"
         id="path64" /><path
         d="m 190.1,828.9 c 0,0 0,-0.6 0.1,-1.8 0,-1.1 0.1,-2.8 0.1,-5 0.1,-4.4 0.3,-10.7 0.4,-18.2 0.1,-3.7 0.2,-7.8 0.2,-12 0.1,-4.3 0.1,-8.9 0.2,-13.6 0,-4.6 0,-9.5 0,-14.4 0.1,-5 0,-10 0.1,-15 0,-4.9 0,-9.9 0,-14.9 -0.1,-4.9 -0.1,-9.8 -0.1,-14.4 -0.1,-9.4 -0.2,-18.2 -0.4,-25.7 -0.1,-7.5 -0.3,-13.7 -0.4,-18.1 0,-2.2 -0.1,-3.9 -0.1,-5.1 -0.1,-1.2 -0.1,-1.8 -0.1,-1.8 0,0 0,0.6 0,1.8 -0.1,1.2 -0.1,2.9 -0.2,5.1 -0.1,4.4 -0.3,10.6 -0.4,18.1 -0.1,7.5 -0.3,16.3 -0.3,25.7 0,4.6 -0.1,9.5 -0.1,14.4 -0.1,5 0,10 0,14.9 0,5 0,10 0,15 0,4.9 0,9.8 0.1,14.4 0,4.7 0.1,9.3 0.1,13.6 0.1,4.2 0.1,8.3 0.2,12 0.1,7.5 0.3,13.8 0.4,18.2 0.1,2.2 0.1,3.9 0.2,5 0,1.2 0,1.8 0,1.8 z"
         style="fill:#f07d00;fill-opacity:1;fill-rule:evenodd;stroke:none"
         id="path66" /><path
         d="m 217.9,743.1 0,0.3 8.7,0 0,0 c 0.1,0 0.1,0 0.1,0 1.2,0 2.1,-0.1 3.3,-0.4 l 0,0 c 1,-0.2 1.8,-0.4 2.7,-0.8 0.5,-0.2 0.9,-0.4 1.3,-0.7 0.3,-0.1 0.6,-0.3 0.9,-0.5 l 0,0 c 0.5,-0.4 1,-0.8 1.5,-1.3 l 0,0 c 0.7,-0.7 1.2,-1.4 1.7,-2.3 0.6,-1 0.9,-2 1.2,-3.1 l 0,0 c 0.3,-1.1 0.4,-2 0.4,-3.1 l 0,0 0,0 c 0,0 0,-0.1 0,-0.1 0,-1 -0.1,-1.9 -0.4,-3 l 0,0 c -0.2,-1 -0.5,-1.8 -1,-2.7 l 0,0 c -0.1,0 -0.1,-0.1 -0.1,-0.1 -0.5,-0.8 -1,-1.4 -1.6,-2.1 l 0,0 c -0.7,-0.8 -1.4,-1.3 -2.2,-1.8 -0.1,-0.1 -0.1,-0.1 -0.2,-0.2 -0.8,-0.4 -1.5,-0.7 -2.3,-0.9 -1.2,-0.3 -2.2,-0.4 -3.5,-0.4 -0.1,0 -0.2,0 -0.4,0 l -10.1,0 0,0.2 0.3,0 c 0.1,0 0.1,0 0.1,0 0.3,0 0.6,0.1 0.9,0.2 0.3,0.2 0.5,0.4 0.6,0.6 l 0,0 c 0.1,0.1 0.1,0.1 0.1,0.2 0.3,0.5 0.4,1 0.4,1.6 l 0,17.8 c 0,0 0,0 0,0.1 0,0.5 0,0.9 -0.2,1.4 l 0,0 c -0.1,0.1 -0.1,0.1 -0.2,0.2 -0.1,0.2 -0.3,0.5 -0.6,0.6 l 0,0 0,0 c -0.3,0.2 -0.7,0.3 -1,0.3 -0.1,0 -0.1,0 -0.1,0 l -0.3,0 z m 4.8,-0.8 0,-18.7 c 0,-0.1 0,-0.1 0,-0.2 0,-0.7 0.1,-1.2 0.4,-1.8 0.2,-0.2 0.4,-0.4 0.6,-0.6 0.2,-0.1 0.5,-0.2 0.7,-0.2 l 0,0 c 0.8,-0.2 1.5,-0.2 2.3,-0.2 0.1,0 0.2,0 0.3,0 l 0,0 c 0.1,0 0.2,0 0.3,0 1.4,0 2.5,0.1 3.8,0.5 0.5,0.1 0.9,0.3 1.3,0.6 0.8,0.4 1.4,0.9 2,1.6 0.5,0.6 0.8,1 1.1,1.6 0.3,0.5 0.6,1 0.8,1.6 l 0,0 c 0.5,1.4 0.7,2.7 0.7,4.2 0,0.1 0,0.2 0,0.3 l 0,0 c 0,0 0,0 0,0 0,1.5 -0.2,2.7 -0.6,4.2 l 0,0 c -0.2,1 -0.6,1.7 -1.1,2.7 -0.2,0.3 -0.4,0.6 -0.6,0.9 l 0,0 c -0.8,1.1 -1.7,1.9 -2.9,2.6 -0.1,0.1 -0.3,0.2 -0.5,0.3 l 0,0 c -1.5,0.7 -2.9,1 -4.6,1 -0.1,0 -0.2,0 -0.3,0 l 0,0 c -1.3,-0.1 -2.4,-0.2 -3.7,-0.4 z"
         style="fill:#000000;fill-opacity:1;fill-rule:evenodd;stroke:none"
         id="path68" /><path
         d="m 244,743.1 0,0.3 13.5,0 0,-3.8 -0.3,0 c 0,2 -1.2,3 -3.8,3 l -4.6,0 0,-10.7 4.1,0 c 0,0 0.1,0 0.1,0 0.8,0 1.4,0.2 2.1,0.5 l 0,0 c 0,0 0,0 0.1,0 0.3,0.2 0.5,0.4 0.7,0.7 0.2,0.4 0.3,0.7 0.3,1.1 0,0 0,0 0,0.1 l 0.2,0 0,-5.3 -0.2,0 c -0.1,0.4 -0.2,0.8 -0.4,1.2 0,0.1 -0.1,0.1 -0.1,0.2 l 0,0 c -0.2,0.3 -0.4,0.4 -0.7,0.6 0,0 -0.1,0 -0.1,0.1 l 0,0 c -0.2,0 -0.4,0.1 -0.7,0.1 -0.4,0.1 -0.7,0.1 -1.1,0.1 l -4.3,0 0,-8.4 0,0 c 0,0 0,0 0,0 0,-0.6 0.1,-1.1 0.3,-1.6 0.2,-0.4 0.8,-0.7 1.6,-0.7 l 3.4,0 c 0,0 0.1,0 0.1,0 0.7,0 1.3,0.1 1.9,0.4 0.1,0 0.1,0.1 0.2,0.1 0.4,0.3 0.7,0.5 1,0.9 l 0,0 c 0.1,0.1 0.1,0.2 0.2,0.3 0.2,0.4 0.4,0.8 0.5,1.3 l 0.3,0 -0.8,-3.7 -13.5,0 0,0.2 0.3,0 c 0.4,0.1 0.7,0.2 1,0.3 0.2,0.1 0.3,0.2 0.5,0.3 l 0,0 c 0.1,0.2 0.2,0.3 0.3,0.5 0.3,0.4 0.4,0.8 0.4,1.3 0,0.1 0,0.2 0,0.2 l 0,17.7 c 0,0.1 0,0.1 0,0.1 0,0.7 -0.2,1.2 -0.5,1.8 l 0,0 c -0.2,0.3 -0.3,0.4 -0.6,0.6 -0.3,0.1 -0.5,0.2 -0.9,0.2 0,0 -0.1,0 -0.1,0 l -0.4,0 z"
         style="fill:#000000;fill-opacity:1;fill-rule:evenodd;stroke:none"
         id="path70" /><path
         d="m 285.3,719.9 -4.8,0 0,3.9 0,0 c -0.2,-0.3 -0.3,-0.6 -0.5,-1 -0.6,-1 -1.4,-1.8 -2.5,-2.5 l 0,0 c -1.3,-0.7 -2.5,-1 -4,-1 l 0,0 c -0.1,0 -0.1,0 -0.2,0 -1.4,0 -2.7,0.3 -4,1 0,0.1 -0.1,0.1 -0.2,0.2 l 0,0 c -1.1,0.6 -2,1.5 -2.7,2.6 -0.5,1 -0.8,1.8 -0.9,2.9 l 0,0 c -0.1,0.9 -0.2,1.8 -0.2,2.7 0,0.1 0,0.1 0,0.1 l 0,11.7 c 0,0 0,0.1 0,0.1 0,0.6 -0.1,1.1 -0.4,1.7 -0.3,0.4 -0.9,0.7 -1.9,0.8 l 0,0.3 7.1,0 0,-0.3 c -1.1,-0.1 -1.7,-0.4 -2,-0.9 l 0,0 c -0.3,-0.5 -0.4,-1.1 -0.4,-1.7 0,0 0,0 0,0 l 0,-11.5 c -0.1,-0.3 -0.1,-0.4 -0.1,-0.7 0,-1.6 0.3,-3 0.8,-4.5 0.1,-0.3 0.2,-0.6 0.4,-0.9 0.5,-0.8 1,-1.4 1.8,-1.9 0.1,-0.1 0.2,-0.2 0.3,-0.2 1,-0.6 1.9,-0.8 3,-0.8 0,0 0,0 0,0 l 0,0 c 0.7,0 1.2,0.1 1.9,0.3 l 0,0 c 0.5,0.1 1,0.3 1.5,0.6 0.2,0.1 0.3,0.2 0.5,0.3 1.9,1.4 2.8,3.5 2.8,6.5 l 0,12.8 c 0,0 0,0 0,0 0,0.7 -0.1,1.2 -0.4,1.7 -0.3,0.5 -1,0.8 -2.1,0.9 l 0,0.3 7.3,0 0,-0.3 c -1.1,-0.1 -1.8,-0.3 -2,-0.9 -0.4,-0.5 -0.5,-1.1 -0.5,-1.7 l 0,-17.8 c 0,0 0,-0.1 0,-0.1 0,-0.5 0.1,-0.9 0.3,-1.3 0,0 0,-0.1 0,-0.1 0.2,-0.2 0.4,-0.4 0.6,-0.6 0.1,0 0.2,-0.1 0.2,-0.1 l 0,0 c 0.5,-0.2 0.9,-0.3 1.3,-0.4 l 0,-0.2 z"
         style="fill:#000000;fill-opacity:1;fill-rule:evenodd;stroke:none"
         id="path72" /><path
         d="m 309.6,738.8 -0.3,0 c -0.1,1.5 -0.5,2.5 -1.3,3 0,0 0,0 0,0 -0.8,0.5 -1.6,0.7 -2.6,0.7 0,0 -0.1,0 -0.1,0 l -4.5,0 0,-19.8 c 0,-1.6 0.8,-2.5 2.5,-2.5 l 0,-0.3 -7.2,0 0,0.3 c 0.5,0 0.9,0.1 1.3,0.3 0.2,0.1 0.3,0.2 0.4,0.3 0.1,0.1 0.3,0.3 0.4,0.5 0.2,0.4 0.3,0.7 0.3,1.2 0,0.1 0,0.2 0,0.2 l 0,19.7 -4.5,0 c 0,0.1 -0.1,0.1 -0.1,0.1 -1,0 -1.8,-0.3 -2.6,-0.7 0,0 0,0 -0.1,-0.1 -0.7,-0.4 -1.1,-1.4 -1.2,-2.9 l -0.3,0 0,5.7 0.3,0 0,0 c 0.1,-0.2 0.2,-0.4 0.4,-0.6 l 0,0 c 0.1,-0.1 0.2,-0.1 0.3,-0.2 0.1,-0.1 0.1,-0.1 0.2,-0.1 l 0,0 c 0.2,-0.1 0.4,-0.2 0.7,-0.2 l 0,0 c 0.3,0 0.5,0 0.8,0 0.1,0 0.1,0 0.1,0 l 14.5,0 c 0.1,0 0.1,0 0.1,0 0.5,0 0.9,0.1 1.3,0.3 0.4,0.2 0.7,0.5 0.9,0.8 l 0.2,0 0.1,-5.7 z"
         style="fill:#000000;fill-opacity:1;fill-rule:evenodd;stroke:none"
         id="path74" /><path
         d="m 326.4,738.9 -0.2,0 0,0 c -0.1,0.7 -0.3,1.3 -0.7,2 -0.2,0.3 -0.5,0.6 -0.8,1 l 0,0 c -0.2,0.2 -0.5,0.4 -0.9,0.6 -0.7,0.5 -1.4,0.6 -2.3,0.6 -0.8,0 -1.5,-0.1 -2.3,-0.6 0,0 0,0 0,0 -0.6,-0.4 -1.1,-0.8 -1.4,-1.5 -0.1,-0.1 -0.1,-0.1 -0.2,-0.2 -0.3,-0.8 -0.5,-1.6 -0.5,-2.5 0,0 0,0 0,-0.1 0,0 0,0 0,-0.1 0,-0.6 0.1,-1.2 0.3,-1.8 0.1,-0.3 0.2,-0.4 0.3,-0.7 0.2,-0.3 0.4,-0.6 0.7,-0.8 l 0,0 c 0.5,-0.5 0.9,-0.9 1.5,-1.3 0.6,-0.3 1.4,-0.8 2.4,-1.4 0.1,0 0.2,-0.1 0.3,-0.2 1.4,-0.7 2.4,-1.5 3.5,-2.6 l 0,0 c 0.3,-0.3 0.5,-0.6 0.7,-0.9 0.5,-0.9 0.7,-1.7 0.7,-2.7 0,-0.1 0,-0.2 0,-0.3 l 0,0 0,0 c 0,-1.1 -0.2,-1.9 -0.7,-2.9 0,0 -0.1,-0.1 -0.1,-0.1 -0.5,-1 -1.2,-1.6 -2.1,-2.1 0,-0.1 0,-0.1 -0.1,-0.1 -1.1,-0.6 -2.1,-0.9 -3.4,-0.9 -0.1,0 -0.2,0 -0.3,0 l 0,0 c 0,0 -0.1,0 -0.1,0 -0.8,0 -1.5,0.1 -2.3,0.4 -0.8,0.2 -1.5,0.4 -2.2,0.8 l 0,0 c -0.3,0.1 -0.4,0.1 -0.6,0.2 l 0,0 c -0.1,0 -0.1,0 -0.1,0 -0.1,0 -0.1,-0.1 -0.2,-0.1 -0.1,0 -0.1,-0.1 -0.2,-0.1 0,0 0,0 0,-0.1 l 0,0 c -0.1,-0.3 -0.2,-0.6 -0.3,-1 l -0.2,0 0,5.9 0.2,0 c 0.2,-0.9 0.4,-1.6 0.9,-2.3 0.3,-0.6 0.7,-1.1 1.3,-1.6 0.2,-0.2 0.5,-0.4 0.8,-0.6 0.9,-0.5 1.8,-0.7 2.9,-0.7 0,0 0.1,0 0.2,0 0,0 0.1,0 0.2,0 0.9,0 1.7,0.2 2.5,0.6 l 0,0 0,0 c 0.5,0.3 0.9,0.7 1.3,1.3 0,0.1 0.1,0.2 0.1,0.3 l 0,0 c 0.3,0.7 0.4,1.3 0.4,1.9 l 0,0 c 0,0.1 0,0.2 0,0.2 0,0.9 -0.2,1.6 -0.6,2.3 -0.1,0.3 -0.3,0.6 -0.5,0.8 l 0,0 c -1,0.9 -1.8,1.6 -3,2.2 -0.2,0.2 -0.3,0.2 -0.6,0.4 -1,0.6 -1.8,1.1 -2.4,1.4 -0.6,0.4 -1,0.8 -1.6,1.3 -0.3,0.4 -0.6,0.8 -0.9,1.3 -0.1,0.2 -0.2,0.4 -0.3,0.6 l 0,0 c -0.4,0.9 -0.5,1.6 -0.5,2.5 0,1.2 0.3,2.2 0.9,3.3 0.6,1 1.3,1.8 2.3,2.4 l 0,0 0,0 c 1.1,0.6 2.2,0.9 3.4,0.9 0.1,0 0.1,0 0.2,0 l 0,0 c 1,0 2,-0.2 3,-0.5 l 0,0 c 0.2,-0.1 0.4,-0.1 0.6,-0.1 0,0 0,0 0,0 0.4,0 0.6,0.2 0.8,0.7 l 0.2,0 0,-5 z"
         style="fill:#000000;fill-opacity:1;fill-rule:evenodd;stroke:none"
         id="path76" /><path
         d="m 351.6,738.1 -0.3,0 c -0.1,0.7 -0.3,1.2 -0.6,1.8 -0.3,0.4 -0.6,0.8 -1,1.2 l 0,0 c -0.4,0.4 -0.9,0.7 -1.4,1.1 -0.5,0.2 -0.9,0.4 -1.5,0.6 l 0,0 c -1,0.4 -1.9,0.5 -3,0.6 l 0,0 c 0,0 0,0 -0.1,0 -1.3,0 -2.4,-0.3 -3.6,-0.9 -0.1,-0.1 -0.3,-0.2 -0.4,-0.3 -1,-0.5 -1.8,-1.2 -2.5,-2.1 -0.4,-0.5 -0.6,-0.9 -0.9,-1.3 -0.5,-0.8 -0.8,-1.6 -1,-2.4 l 0,0 c -0.6,-1.7 -0.8,-3.1 -0.8,-4.7 0,-0.1 0,-0.1 0,-0.1 l 0,0 c 0,0 0,-0.1 0,-0.1 0,-1.6 0.2,-2.9 0.7,-4.5 l 0,0 c 0.3,-0.8 0.5,-1.5 1,-2.2 0.3,-0.6 0.6,-1 1,-1.5 0.6,-0.8 1.4,-1.4 2.3,-2 0.2,-0.1 0.4,-0.2 0.6,-0.3 1.2,-0.5 2.3,-0.8 3.6,-0.8 0.1,0 0.1,0 0.1,0 l 0,0 c 1.4,0 2.5,0.3 3.8,0.7 l 0,0 c 0.6,0.2 1,0.4 1.6,0.7 0.8,0.5 1.4,1 2.1,1.7 l 0,-0.9 c -0.8,-0.7 -1.6,-1.2 -2.6,-1.8 -0.4,-0.2 -0.7,-0.4 -1.1,-0.6 -1.3,-0.5 -2.5,-0.8 -3.9,-0.8 -0.1,0 -0.2,0 -0.3,0 l 0,0 c -0.1,0 -0.1,0 -0.2,0 -1.7,0 -3.1,0.3 -4.7,1.1 l 0,0 c -0.4,0.1 -0.6,0.3 -1,0.5 -1.1,0.6 -1.9,1.3 -2.7,2.2 l 0,0 c -0.6,0.6 -1,1.2 -1.4,1.9 -0.4,0.7 -0.6,1.3 -0.9,2 l 0,0 c -0.6,1.5 -0.8,2.8 -0.8,4.4 0,2.4 0.5,4.3 1.6,6.4 l 0,0 c 0.1,0.1 0.1,0.2 0.2,0.3 1.1,1.8 2.4,3.2 4.2,4.4 l 0,0 c 0.2,0 0.2,0.1 0.4,0.2 1.8,1 3.5,1.5 5.6,1.5 0,0 0,0 0.1,0 l 0,0 c 1.5,-0.1 2.8,-0.2 4.2,-0.7 l 1.6,-0.4 0,0 c 0.3,-0.1 0.5,-0.1 0.8,-0.1 0,0 0.1,0 0.1,0 0.3,0 0.5,0 0.7,0.1 l 0,0.1 0,0 c 0.1,0 0.1,0.1 0.2,0.2 0,0.1 0.1,0.3 0.1,0.4 l 0.3,0 -0.2,-5.6 z"
         style="fill:#000000;fill-opacity:1;fill-rule:evenodd;stroke:none"
         id="path78" /><path
         d="m 373.5,732.6 0,7.9 0,0 c 0,0 0,0.1 0,0.1 0,0.6 -0.1,1 -0.3,1.5 -0.1,0.1 -0.2,0.2 -0.2,0.3 l 0,0 c -0.2,0.2 -0.4,0.3 -0.6,0.4 -0.3,0.2 -0.7,0.3 -1.1,0.3 -0.1,0 -0.1,0 -0.2,0 l 0,0.3 7.2,0 0,-0.3 0,0 c -0.1,0 -0.1,0 -0.2,0 -0.4,0 -0.8,-0.1 -1.1,-0.3 -0.2,-0.1 -0.4,-0.2 -0.6,-0.4 l 0,0 c 0,-0.1 -0.1,-0.2 -0.1,-0.3 -0.3,-0.5 -0.4,-0.9 -0.4,-1.5 0,0 0,-0.1 0,-0.1 l 0,-17.8 c 0,-1.7 0.8,-2.6 2.4,-2.6 l 0,-0.2 -7.2,0 0,0.2 c 0.1,0 0.1,0 0.2,0 0.4,0 0.8,0.1 1.2,0.4 0.1,0 0.3,0.1 0.4,0.3 l 0,0 c 0.1,0.1 0.2,0.2 0.3,0.4 0.3,0.4 0.4,0.8 0.4,1.3 0,0.1 -0.1,0.1 -0.1,0.2 l 0,9.2 -12.9,0 0,-9.2 c 0,0 0,-0.1 0,-0.1 0,-0.5 0.1,-0.9 0.4,-1.3 0.1,-0.2 0.2,-0.3 0.3,-0.5 0.1,-0.1 0.3,-0.2 0.5,-0.3 0.4,-0.2 0.7,-0.4 1.2,-0.4 0,0 0,0 0.1,0 l 0,-0.2 -7.2,0 0,0.2 c 0,0 0.1,0 0.1,0 0.5,0 0.8,0.2 1.2,0.4 0.2,0.1 0.3,0.2 0.5,0.3 0.1,0.2 0.1,0.3 0.2,0.4 0.3,0.4 0.4,0.9 0.4,1.4 0,0 0,0.1 0,0.1 l 0,17.8 c 0,1.8 -0.8,2.6 -2.4,2.6 l 0,0.3 7.2,0 0,-0.3 c -0.1,0.1 -0.2,0.1 -0.2,0.1 -0.4,0 -0.8,-0.2 -1.1,-0.4 -0.3,-0.1 -0.4,-0.2 -0.6,-0.4 l 0,0 c -0.1,-0.1 -0.1,-0.2 -0.2,-0.3 -0.3,-0.4 -0.4,-0.9 -0.4,-1.4 0,-0.1 0,-0.1 0,-0.2 l 0,-7.8 12.9,-0.1 z"
         style="fill:#000000;fill-opacity:1;fill-rule:evenodd;stroke:none"
         id="path80" /><path
         d="m 383.7,743.1 0,0.3 13.5,0 0,-3.8 -0.3,0 c 0,2 -1.2,3 -3.8,3 l -4.7,0 0,-10.7 4.2,0 0,0 c 0,0 0,0 0.1,0 0.7,0 1.4,0.2 2.1,0.5 l 0,0 c 0,0 0,0 0,0 0.4,0.2 0.6,0.4 0.8,0.7 0.2,0.4 0.3,0.7 0.3,1.1 0,0 0,0 0,0.1 l 0.2,0 0,-5.3 -0.2,0 c -0.1,0.4 -0.2,0.8 -0.4,1.2 0,0.1 -0.1,0.1 -0.2,0.2 l 0,0 c -0.1,0.3 -0.3,0.4 -0.6,0.6 0,0 -0.1,0 -0.1,0.1 l 0,0 c -0.2,0 -0.4,0.1 -0.7,0.1 l 0,0 c -0.4,0.1 -0.7,0.1 -1.1,0.1 l -4.4,0 0,-8.4 0,0 c 0,0 0,0 0,0 0,-0.6 0.1,-1.1 0.4,-1.6 0.2,-0.5 0.8,-0.7 1.6,-0.7 l 3.3,0 c 0.1,0 0.1,0 0.2,0 0.7,0 1.2,0.1 1.8,0.4 0.1,0 0.2,0.1 0.3,0.1 0.4,0.3 0.7,0.5 1,0.9 0,0.1 0.1,0.2 0.2,0.3 0.2,0.4 0.4,0.8 0.5,1.3 l 0.3,0 -0.8,-3.7 -13.5,0 0,0.2 0.3,0 c 0.4,0.1 0.7,0.2 1,0.3 0.2,0.1 0.3,0.2 0.4,0.3 l 0,0 c 0.2,0.2 0.3,0.3 0.4,0.5 0.3,0.4 0.4,0.8 0.4,1.3 0,0.1 0,0.2 -0.1,0.2 l 0,17.7 c 0,0.1 0,0.1 0,0.1 0,0.7 -0.1,1.2 -0.4,1.8 -0.2,0.3 -0.4,0.4 -0.6,0.6 -0.3,0.1 -0.6,0.2 -0.9,0.2 0,0 -0.1,0 -0.2,0 l -0.3,0 z"
         style="fill:#000000;fill-opacity:1;fill-rule:evenodd;stroke:none"
         id="path82" /><path
         d="m 427.7,738.9 -0.3,0 0,0 c 0,0.7 -0.2,1.3 -0.6,2 -0.2,0.3 -0.5,0.6 -0.8,1 l 0,0 c -0.3,0.2 -0.5,0.4 -0.9,0.6 -0.7,0.5 -1.4,0.6 -2.3,0.6 -0.8,0 -1.5,-0.1 -2.3,-0.6 0,0 0,0 0,0 -0.6,-0.4 -1.1,-0.8 -1.5,-1.5 0,-0.1 0,-0.1 -0.1,-0.2 -0.4,-0.8 -0.5,-1.6 -0.5,-2.5 0,0 0,0 0,-0.1 0,0 0,0 0,-0.1 0,-0.6 0.1,-1.2 0.3,-1.8 0.1,-0.3 0.2,-0.4 0.3,-0.7 0.2,-0.3 0.4,-0.6 0.7,-0.8 l 0,0 c 0.5,-0.5 0.9,-0.9 1.5,-1.3 0.6,-0.3 1.4,-0.8 2.4,-1.4 l 0,0 c 0.1,0 0.2,-0.1 0.3,-0.2 1.4,-0.7 2.4,-1.5 3.5,-2.6 0.3,-0.3 0.5,-0.6 0.7,-0.9 0.5,-0.9 0.7,-1.7 0.7,-2.7 0,-0.1 0,-0.2 0,-0.3 l 0,0 c 0,-1.1 -0.2,-1.9 -0.7,-2.9 l 0,0 c 0,0 -0.1,-0.1 -0.1,-0.1 -0.5,-1 -1.2,-1.6 -2.2,-2.1 0,-0.1 0,-0.1 0,-0.1 l 0,0 c -1.1,-0.6 -2.2,-0.9 -3.5,-0.9 -0.1,0 -0.1,0 -0.2,0 0,0 -0.1,0 -0.1,0 -0.9,0 -1.6,0.1 -2.4,0.4 l 0,0 c -0.8,0.2 -1.4,0.4 -2.1,0.8 l 0,0 c -0.3,0.1 -0.4,0.1 -0.7,0.2 l 0,0 c 0,0 0,0 0,0 -0.1,0 -0.2,-0.1 -0.2,-0.1 -0.1,0 -0.1,-0.1 -0.2,-0.1 0,0 0,0 0,-0.1 l 0,0 c -0.1,-0.3 -0.2,-0.6 -0.3,-1 l -0.2,0 0,5.9 0.2,0 c 0.2,-0.9 0.4,-1.6 0.8,-2.3 0.4,-0.6 0.8,-1.1 1.4,-1.6 l 0,0 c 0.2,-0.2 0.5,-0.4 0.7,-0.6 1,-0.5 1.9,-0.7 3,-0.7 0.1,0 0.1,0 0.2,0 l 0,0 c 0,0 0.1,0 0.2,0 0.9,0 1.7,0.2 2.5,0.6 l 0,0 0,0 c 0.6,0.3 0.9,0.7 1.3,1.3 0,0.1 0.1,0.2 0.1,0.3 l 0,0 c 0.3,0.7 0.4,1.3 0.4,1.9 l 0,0 c 0,0.1 0,0.2 0,0.2 0,0.9 -0.2,1.6 -0.6,2.3 -0.1,0.3 -0.3,0.6 -0.5,0.8 l 0,0 c -0.9,0.9 -1.8,1.6 -3,2.2 -0.2,0.2 -0.4,0.2 -0.5,0.4 -1.1,0.6 -1.9,1.1 -2.5,1.4 -0.6,0.4 -1,0.8 -1.5,1.3 -0.4,0.4 -0.7,0.7 -1,1.2 -0.1,0.3 -0.2,0.5 -0.3,0.7 l 0,0 c -0.4,0.8 -0.5,1.6 -0.5,2.4 0,0.1 0,0.1 0,0.2 l 0,0 0,0 c 0,1.2 0.3,2.1 0.8,3.2 l 0,0 c 0,0 0.1,0 0.1,0 0.6,1.1 1.3,1.8 2.3,2.4 l 0,0 0.1,0 c 1,0.6 2.1,0.9 3.4,0.9 0,0 0,0 0,0 l 0,0 c 1.1,0 2.1,-0.2 3.1,-0.5 0.2,-0.1 0.4,-0.1 0.6,-0.1 0,0 0,0 0.1,0 0.3,0 0.5,0.2 0.7,0.7 l 0.2,0 0,-5 z"
         style="fill:#000000;fill-opacity:1;fill-rule:evenodd;stroke:none"
         id="path84" /><path
         d="m 434.9,743.1 0,0.3 7.4,0 c 0,0 0.1,0 0.1,0 1.1,0 2.1,-0.2 3.1,-0.6 0.4,-0.1 0.8,-0.2 1.2,-0.5 0.4,-0.2 0.8,-0.5 1.2,-0.9 l 0,0 c 0.5,-0.4 0.8,-0.8 1.1,-1.3 0.1,-0.3 0.2,-0.5 0.3,-0.7 l 0,0 c 0.4,-0.8 0.5,-1.5 0.5,-2.4 0,0 0,0 0,0 l 0,0 0,-0.1 c 0,-0.8 -0.1,-1.5 -0.5,-2.3 l 0,0 c -0.1,-0.3 -0.2,-0.5 -0.3,-0.8 -0.3,-0.5 -0.6,-0.8 -1,-1.2 l 0,0 c -0.4,-0.4 -0.7,-0.6 -1.2,-0.9 -0.4,-0.2 -0.8,-0.4 -1.3,-0.5 l 0,0 c -1.1,-0.4 -2.1,-0.6 -3.3,-0.6 -0.1,0 -0.1,0 -0.2,0 -0.4,0 -1.2,0.1 -2.4,0.2 l 0,-8.1 c 0,-1.7 0.8,-2.5 2.5,-2.6 l 0,-0.2 -7.2,0 0,0.2 0,0 c 0.5,0 0.9,0.2 1.3,0.4 0.2,0.1 0.3,0.1 0.4,0.3 0.2,0.1 0.3,0.2 0.4,0.4 0.2,0.4 0.3,0.8 0.3,1.3 0,0 0,0.1 0,0.2 l 0,17.8 0,0 c 0,0 0,0.1 0,0.1 0,0.5 -0.1,0.8 -0.3,1.3 l 0,0 c 0,0 0,0.1 -0.1,0.2 -0.1,0.2 -0.2,0.4 -0.4,0.5 -0.1,0.1 -0.1,0.1 -0.2,0.2 -0.2,0 -0.3,0.1 -0.5,0.2 l -0.6,0.1 -0.3,0 z m 4.7,-0.5 0,-11.1 0,0 c 0.8,-0.2 1.5,-0.2 2.3,-0.2 0.1,0 0.1,0 0.2,0 1.1,0 2,0.2 3,0.7 0.2,0.2 0.4,0.3 0.6,0.4 1,0.8 1.5,2.3 1.5,4.4 0,0.1 0,0.1 0,0.2 0,1.3 -0.3,2.3 -0.9,3.4 -0.2,0.2 -0.3,0.4 -0.5,0.6 -0.3,0.5 -0.7,0.8 -1.2,1.1 -0.8,0.4 -1.6,0.6 -2.5,0.6 -0.1,0 -0.2,0 -0.3,0 -0.1,0 -0.1,0 -0.1,0 -0.8,0 -1.4,0 -2.1,-0.1 z"
         style="fill:#000000;fill-opacity:1;fill-rule:evenodd;stroke:none"
         id="path86" /><path
         d="m 454.6,743 -0.3,0 0,0.4 7.9,0 c 0,0 0.1,0 0.2,0 1.1,0 2,-0.2 3,-0.6 0.2,-0.1 0.3,-0.2 0.5,-0.3 0.6,-0.4 1.1,-0.7 1.5,-1.3 l 0,0 c 0.2,-0.2 0.3,-0.5 0.5,-0.7 0.2,-0.4 0.4,-0.8 0.6,-1.2 l 0,0 c 0.2,-0.7 0.3,-1.4 0.3,-2.1 0,0 0,0 0,0 0,-0.9 -0.2,-1.6 -0.6,-2.4 0,-0.2 -0.1,-0.4 -0.2,-0.5 -0.4,-0.7 -0.8,-1.1 -1.3,-1.5 -0.3,-0.2 -0.5,-0.4 -0.7,-0.5 -0.6,-0.4 -1.3,-0.6 -2,-0.7 l 0,-0.1 c 1.4,-0.6 2.6,-2 3.7,-4 l 2.1,-3.6 0,0 c 0.1,-0.2 0.2,-0.4 0.3,-0.6 0.6,-1 1.1,-1.7 1.9,-2.5 l 0,0 c 0.1,-0.1 0.3,-0.2 0.5,-0.3 0.3,-0.2 0.7,-0.3 1.1,-0.4 l 0,-0.2 -4.1,0 c -0.1,0.2 -0.3,0.4 -0.5,0.7 l -0.4,0.7 c -0.1,0.1 -0.3,0.4 -0.5,0.7 0,0 0,0 0,0 -0.1,0.2 -0.2,0.4 -0.4,0.5 l -2.6,4.7 0,0 c -0.1,0 -0.1,0.1 -0.1,0.1 -0.5,0.8 -1,1.5 -1.6,2.2 l 0,0 c -0.5,0.5 -1,0.9 -1.6,1.2 0,0 0,0 0,0 l 0,0 c -0.4,0.3 -0.9,0.4 -1.3,0.5 l 0,0 c -0.5,0.1 -0.9,0.1 -1.3,0.1 -0.1,0 -0.1,0 -0.1,0 l 0,-8.6 c 0,-1.7 0.8,-2.5 2.4,-2.6 l 0,-0.2 -7.2,0 0,0.2 0,0 c 0.5,0 0.8,0.1 1.2,0.3 l 0,0 c 0.1,0 0.1,0 0.2,0.1 0.3,0.1 0.5,0.3 0.7,0.7 0,0 0,0 0,0 0.2,0.4 0.3,0.8 0.3,1.3 0,0.1 0,0.2 0,0.2 l 0,17.8 0,0 c 0,0.1 0,0.2 0,0.2 0,0.5 0,0.9 -0.3,1.3 -0.1,0.2 -0.2,0.3 -0.3,0.5 l 0,0 c -0.1,0.1 -0.3,0.2 -0.4,0.3 -0.3,0.2 -0.7,0.2 -1.1,0.2 z m 4.5,-11.1 1.3,0 0,0 c 0.1,0 0.2,0 0.3,0 1.1,0 2,0.2 3,0.6 l 0,0 c 0.2,0.1 0.3,0.2 0.4,0.2 0.6,0.4 1.1,0.8 1.4,1.5 0.1,0 0.1,0 0.1,0.1 l 0,0 c 0.4,0.8 0.6,1.6 0.6,2.6 0,0 0,0.1 0,0.1 0,1 -0.2,1.8 -0.6,2.7 l 0,0 c 0,0.2 -0.1,0.4 -0.2,0.6 -0.4,0.6 -0.9,1.1 -1.5,1.6 -0.1,0 -0.2,0.1 -0.2,0.1 -0.9,0.5 -1.8,0.8 -2.9,0.8 -0.1,0 -0.2,0 -0.3,0 0,0 -0.1,0 -0.1,0 -0.5,0 -0.8,-0.1 -1.3,-0.2 l 0,-10.7 z"
         style="fill:#000000;fill-opacity:1;fill-rule:evenodd;stroke:none"
         id="path88" /><path
         d="m 488.5,743.7 7.3,-20.2 c 0.2,-0.6 0.4,-1.2 0.8,-1.8 0.1,-0.1 0.2,-0.3 0.3,-0.5 0.2,-0.3 0.4,-0.6 0.8,-0.7 0,-0.1 0.1,-0.1 0.1,-0.1 0.4,-0.2 0.8,-0.3 1.2,-0.3 l 0,-0.2 -7.9,0 0,0.2 c 0.1,0 0.2,0 0.3,0 0.5,0 1,0.1 1.6,0.2 0.5,0.2 0.7,0.6 0.7,1.3 -0.1,0.5 -0.2,0.9 -0.4,1.4 0,0 0,0 0,0 0,0.1 0,0.1 0,0.2 l -2.1,6.2 -8.6,0 -1.9,-5.8 0,0 c -0.3,-0.6 -0.4,-1.2 -0.4,-1.9 0,0 0,-0.1 0,-0.2 0,-0.2 0,-0.5 0.2,-0.7 0.1,-0.2 0.2,-0.3 0.3,-0.4 l 0,0 c 0.4,-0.2 0.8,-0.3 1.3,-0.3 0.1,0 0.1,0 0.2,0 l 0,-0.3 -5.8,0 0,0.3 c 0.5,0 0.9,0.2 1.3,0.4 0.3,0.1 0.5,0.3 0.7,0.5 0.2,0.3 0.4,0.6 0.7,0.9 0.2,0.5 0.4,1 0.6,1.5 l 6.9,20.2 1.8,0.1 z m -5.6,-13.4 7.8,0 -4,11.2 -0.1,0 -3.7,-11.2 z"
         style="fill:#000000;fill-opacity:1;fill-rule:evenodd;stroke:none"
         id="path90" /><path
         d="m 520.1,738.1 -0.2,0 c -0.1,0.7 -0.3,1.2 -0.6,1.8 -0.3,0.4 -0.6,0.8 -1,1.2 l 0,0 c -0.4,0.4 -0.9,0.7 -1.5,1.1 -0.4,0.2 -0.9,0.4 -1.4,0.6 l 0,0 c -1,0.4 -2,0.5 -3,0.6 l 0,0 c -0.1,0 -0.1,0 -0.1,0 -1.3,0 -2.4,-0.3 -3.6,-0.9 l 0,0 c -0.2,-0.1 -0.3,-0.2 -0.4,-0.3 -1.1,-0.5 -1.8,-1.2 -2.5,-2.1 l 0,0 c -0.4,-0.5 -0.7,-0.9 -0.9,-1.3 -0.5,-0.8 -0.8,-1.6 -1.1,-2.4 l 0,0 c -0.5,-1.7 -0.7,-3.1 -0.7,-4.7 0,-0.1 0,-0.1 0,-0.1 0,0 0,-0.1 0,-0.1 0,-1.6 0.2,-2.9 0.7,-4.5 l 0,0 c 0.2,-0.8 0.5,-1.5 1,-2.3 0.2,-0.5 0.5,-0.9 0.9,-1.4 l 0,0 c 0.7,-0.8 1.4,-1.4 2.4,-2 1.3,-0.8 2.6,-1.1 4.1,-1.1 0.1,0 0.2,0 0.2,0 1.4,0 2.5,0.3 3.8,0.7 l 0,0 c 0.6,0.2 1,0.4 1.5,0.7 0.9,0.5 1.5,1 2.2,1.7 l 0,-0.9 c -0.8,-0.7 -1.6,-1.2 -2.6,-1.8 -0.4,-0.2 -0.7,-0.4 -1.1,-0.6 -1.3,-0.5 -2.5,-0.8 -3.9,-0.8 -0.1,0 -0.2,0 -0.4,0 l 0,0 c 0,0 0,0 -0.1,0 -1.7,0 -3.2,0.3 -4.7,1.1 -0.4,0.1 -0.7,0.3 -1,0.5 -1.1,0.6 -1.9,1.3 -2.7,2.2 -0.6,0.6 -1,1.2 -1.4,1.9 -0.4,0.7 -0.7,1.3 -0.9,2 l 0,0 c -0.6,1.5 -0.8,2.8 -0.8,4.4 0,2.4 0.5,4.3 1.6,6.4 l 0,0 c 0.1,0.1 0.1,0.2 0.2,0.3 1,1.9 2.4,3.2 4.2,4.4 l 0,0 c 0.1,0 0.2,0.1 0.4,0.2 1.8,1 3.5,1.5 5.6,1.5 0,0 0,0 0,0 l 0,0 c 1.6,-0.1 2.8,-0.2 4.3,-0.7 l 1.6,-0.4 0,0 c 0.3,-0.1 0.5,-0.1 0.8,-0.1 l 0,0 c 0,0 0.1,0 0.1,0 0.2,0 0.4,0 0.6,0.1 l 0.1,0.1 0,0 c 0,0 0.1,0.1 0.1,0.2 0.1,0.1 0.1,0.3 0.2,0.4 l 0.2,0 -0.2,-5.6 z"
         style="fill:#000000;fill-opacity:1;fill-rule:evenodd;stroke:none"
         id="path92" /><path
         d="m 542.3,732.6 0,7.9 c 0,0 0,0.1 0,0.1 0,0.6 -0.1,1 -0.4,1.5 -0.1,0.1 -0.1,0.2 -0.2,0.3 -0.2,0.2 -0.3,0.3 -0.5,0.4 -0.4,0.2 -0.7,0.3 -1.2,0.3 -0.1,0 -0.1,0 -0.2,0 l 0,0.3 7.2,0 0,-0.3 c -0.1,0 -0.1,0 -0.2,0 -0.4,0 -0.7,-0.1 -1.1,-0.3 -0.2,-0.1 -0.4,-0.2 -0.5,-0.4 -0.1,-0.1 -0.2,-0.2 -0.2,-0.3 -0.3,-0.5 -0.4,-0.9 -0.4,-1.5 0,0 0,-0.1 0,-0.1 l 0,-17.8 c 0,-1.7 0.8,-2.6 2.4,-2.6 l 0,-0.2 -7.2,0 0,0.2 c 0.1,0 0.1,0 0.2,0 0.4,0 0.8,0.1 1.2,0.4 0.2,0 0.3,0.1 0.4,0.3 l 0,0 c 0.2,0.1 0.2,0.2 0.3,0.4 0.3,0.4 0.4,0.8 0.4,1.3 0,0.1 0,0.1 0,0.2 l 0,9.2 -13,0 0,-9.2 0,0 c 0,0 0,-0.1 0,-0.1 0,-0.5 0.1,-0.9 0.4,-1.3 0.1,-0.2 0.2,-0.3 0.3,-0.5 l 0,0 c 0.1,-0.1 0.3,-0.2 0.4,-0.3 0.4,-0.2 0.8,-0.4 1.3,-0.4 0,0 0,0 0.1,0 l 0,-0.2 -7.2,0 0,0.2 c 0,0 0.1,0 0.1,0 0.4,0 0.8,0.2 1.2,0.4 0.2,0.1 0.3,0.2 0.5,0.3 0.1,0.2 0.1,0.3 0.2,0.4 0.3,0.4 0.4,0.9 0.4,1.4 0,0 0,0.1 0,0.1 l 0,17.8 c 0,1.8 -0.8,2.6 -2.4,2.6 l 0,0.3 7.2,0 0,-0.3 0,0 c -0.1,0.1 -0.2,0.1 -0.2,0.1 -0.4,0 -0.8,-0.2 -1.2,-0.4 -0.2,-0.1 -0.3,-0.2 -0.5,-0.4 l 0,0 c -0.1,-0.1 -0.1,-0.2 -0.2,-0.3 -0.3,-0.4 -0.4,-0.9 -0.4,-1.4 0,-0.1 0,-0.1 0,-0.2 l 0,-7.8 13,-0.1 z"
         style="fill:#000000;fill-opacity:1;fill-rule:evenodd;stroke:none"
         id="path94" /><path
         d="m 551.4,743.1 0,0.3 13.5,0 0,-3.8 -0.3,0 c 0,2 -1.2,3 -3.8,3 l -4.7,0 0,-10.7 4.2,0 0,0 c 0,0 0.1,0 0.1,0 0.7,0 1.4,0.2 2.1,0.5 0,0 0,0 0,0 0.4,0.2 0.6,0.4 0.8,0.7 0.2,0.4 0.3,0.7 0.3,1.1 0,0 0,0 0,0.1 l 0.2,0 0,-5.3 -0.2,0 c 0,0.4 -0.2,0.8 -0.4,1.2 0,0.1 -0.1,0.1 -0.1,0.2 -0.2,0.3 -0.4,0.4 -0.7,0.6 0,0 0,0 -0.1,0.1 l 0,0 c -0.2,0 -0.4,0.1 -0.6,0.1 l 0,0 c -0.4,0.1 -0.8,0.1 -1.2,0.1 l 0,0 -4.3,0 0,-8.4 0,0 c 0,0 0,0 0,0 0,-0.6 0.1,-1.1 0.3,-1.6 0.3,-0.5 0.8,-0.7 1.6,-0.7 l 3.4,0 c 0,0 0.1,0 0.2,0 0.6,0 1.2,0.1 1.8,0.4 0.1,0 0.1,0.1 0.2,0.1 0.5,0.3 0.7,0.5 1,0.9 0.1,0.1 0.1,0.2 0.2,0.3 0.2,0.4 0.4,0.8 0.6,1.3 l 0.2,0 -0.8,-3.7 -13.5,0 0,0.2 0.3,0 c 0.4,0.1 0.7,0.2 1,0.3 0.2,0.1 0.3,0.2 0.5,0.3 l 0,0 c 0.1,0.2 0.2,0.3 0.3,0.5 0.3,0.4 0.4,0.8 0.4,1.3 0,0.1 0,0.2 0,0.2 l 0,17.7 c 0,0.1 0,0.1 0,0.1 0,0.7 -0.2,1.2 -0.5,1.8 -0.2,0.3 -0.3,0.4 -0.6,0.6 -0.3,0.1 -0.6,0.2 -0.9,0.2 0,0 -0.1,0 -0.1,0 l -0.4,0 z"
         style="fill:#000000;fill-opacity:1;fill-rule:evenodd;stroke:none"
         id="path96" /></g></g></svg>