<?xml version="1.0" encoding="UTF-8" standalone="no"?>
<svg
   xmlns:dc="http://purl.org/dc/elements/1.1/"
   xmlns:cc="http://creativecommons.org/ns#"
   xmlns:rdf="http://www.w3.org/1999/02/22-rdf-syntax-ns#"
   xmlns:svg="http://www.w3.org/2000/svg"
   xmlns="http://www.w3.org/2000/svg"
   xmlns:sodipodi="http://sodipodi.sourceforge.net/DTD/sodipodi-0.dtd"
   xmlns:inkscape="http://www.inkscape.org/namespaces/inkscape"
   version="1.1"
   width="921.02118"
   height="188.88087"
   id="ids-logo"
   inkscape:version="0.48.3.1 r9886"
   sodipodi:docname="ids-institute-for-german-language.svg">
  <metadata
     id="metadata13">
    <rdf:RDF>
      <cc:Work
         rdf:about="">
        <dc:format>image/svg+xml</dc:format>
        <dc:type
           rdf:resource="http://purl.org/dc/dcmitype/StillImage" />
      </cc:Work>
    </rdf:RDF>
  </metadata>
  <defs
     id="defs11" />
  <sodipodi:namedview
     pagecolor="#ffffff"
     bordercolor="#666666"
     borderopacity="1"
     objecttolerance="10"
     gridtolerance="10"
     guidetolerance="10"
     inkscape:pageopacity="0"
     inkscape:pageshadow="2"
     inkscape:window-width="640"
     inkscape:window-height="480"
     id="namedview9"
     showgrid="false"
     fit-margin-top="6"
     fit-margin-left="6"
     fit-margin-right="6"
     fit-margin-bottom="6"
     inkscape:zoom="0.31792439"
     inkscape:cx="460.5106"
     inkscape:cy="94.440451"
     inkscape:window-x="0"
     inkscape:window-y="0"
     inkscape:window-maximized="0"
     inkscape:current-layer="ids-logo" />
  <g
     transform="translate(-98.260005,-64.863418)"
     id="g3">
    <path
       d="m 161.11341,247.35043 c -20.8071,-1.77127 -34.04259,-6.70601 -40.81803,-15.21865 -11.43519,-14.36713 -16.07421,-35.68467 -16.03513,-73.68579 0.0473,-46.0156 8.63296,-71.977422 26.57478,-80.358492 20.96891,-9.79509 62.07198,-9.59699 82.37268,0.39702 18.60282,9.15813 27.47875,39.739092 25.96564,89.461472 -1.47023,48.3134 -11.20278,68.97665 -35.72556,75.84923 -11.67266,3.2713 -28.78653,4.70851 -42.33438,3.55521 z m 25.24242,-3.92684 c 30.26812,-3.18804 40.00574,-11.33592 45.49778,-38.06993 5.45958,-26.57594 4.36332,-80.57293 -2.03849,-100.40767 -7.72656,-23.939242 -19.77288,-30.064292 -58.83723,-29.916292 -21.39655,0.0811 -29.8958,1.4443 -40.13648,6.43768 -6.88335,3.35634 -10.06408,6.94981 -14.36959,16.2342 -5.63065,12.141952 -7.1403,22.981212 -7.69421,55.244412 -0.5425,31.5991 0.65286,46.59777 4.79193,60.12618 5.90897,19.31324 14.15581,26.0343 35.90835,29.26478 15.38451,2.28475 23.29082,2.51772 36.87794,1.08664 z m -3.83421,-30.4776 -0.0199,-11 3.31612,5.96064 c 2.49209,4.47948 4.39189,6.52953 7.64536,8.25 8.01354,4.23767 16.29962,2.42333 19.47288,-4.26381 2.10749,-4.44121 1.38176,-9.69801 -1.77448,-12.85346 -1.20105,-1.20075 -6.50151,-4.72416 -11.7788,-7.82981 -5.2773,-3.10565 -11.06274,-7.31821 -12.85656,-9.36125 -3.07959,-3.50746 -3.23906,-4.0666 -2.85959,-10.02616 0.30318,-4.76135 0.94338,-6.88793 2.60656,-8.6583 1.21256,-1.29071 2.20466,-2.65525 2.20466,-3.0323 0,-0.37705 -7.0875,-0.6646 -15.75,-0.63899 l -15.75,0.0466 4.6519,2.42275 c 9.86801,5.13935 14.54227,14.94648 13.55232,28.43437 -1.00868,13.74314 -6.02672,22.44663 -15.48137,26.85153 -5.39214,2.51218 -6.70525,2.68221 -22.72285,2.94236 -16.83038,0.27335 -16.96508,0.25845 -13.5,-1.49341 l 3.5,-1.76951 0,-27.4906 0,-27.49061 -4.17396,-1.0073 c -2.29568,-0.55401 -4.39513,-1.22901 -4.66545,-1.5 -0.27032,-0.27098 6.78297,-0.54023 15.67396,-0.59832 15.36268,-0.10037 31.82553,-2.15446 33.90092,-4.22985 0.43645,-0.43645 0.67452,-14.93952 0.52904,-32.22904 l -0.26449,-31.435532 -4.17396,-1.0073 c -2.29568,-0.55401 -4.39568,-1.22901 -4.66667,-1.5 -0.27099,-0.27098 5.9573,-0.4927 13.84063,-0.4927 7.88333,0 14.11162,0.22172 13.84063,0.4927 -0.27099,0.27099 -2.37099,0.94599 -4.66667,1.5 l -4.17396,1.0073 -0.26407,31.769402 -0.26408,31.7694 2.76408,1.13496 c 1.52024,0.62423 8.61407,1.19962 15.76407,1.27865 7.15,0.079 14.4172,0.50676 16.14933,0.95051 2.70074,0.69189 3.24449,0.507 3.81739,-1.29805 1.40339,-4.4217 2.53328,-1.79237 2.53328,5.89513 0,4.4 -0.3375,7.9879 -0.75,7.9731 -0.4125,-0.0148 -1.80902,-1.74525 -3.10337,-3.84545 -3.16194,-5.13053 -6.84027,-7.12765 -13.12785,-7.12765 -4.38378,0 -5.61841,0.44578 -8.0957,2.92308 -2.35338,2.35337 -2.92308,3.78882 -2.92308,7.36514 0,6.09388 2.26977,8.60357 12.73812,14.08453 9.99902,5.23523 11.84463,6.63314 15.78491,11.95583 5.65111,7.63375 3.03173,17.74322 -5.89762,22.7618 -5.35835,3.01156 -15.79442,3.7215 -22.27017,1.51499 -2.66232,-0.90714 -4.97261,-1.25327 -5.13397,-0.76917 -0.16137,0.4841 -0.93786,1.73149 -1.72553,2.77199 -1.27102,1.67899 -1.43437,0.65435 -1.45201,-9.10819 z m -28.33864,2.29859 c 8.97125,-4.21698 12.30514,-11.8704 12.27295,-28.17432 -0.0305,-15.45093 -2.69672,-20.97809 -11.66184,-24.17546 -4.79512,-1.71015 -16.49418,-1.87083 -18.1162,-0.24881 -1.75964,1.75964 -1.71195,54.40536 0.05,55.18997 2.37437,1.05732 13.07127,-0.53074 17.45509,-2.59138 z"
       style="fill:#000000"
       id="path5"
       inkscape:connector-curvature="0" />
    <path
       d="m 688.96875,72.625 c -1.25007,8.3e-5 -2.42804,0.474258 -3.3125,1.34375 -0.62289,0.612419 -0.9591,1.398713 -1.15625,2.21875 l -0.21875,0 0,1 0,1.03125 0.1875,0 c 0.18633,0.853108 0.55586,1.650508 1.1875,2.25 l 0,0.03125 c 0.88048,0.804924 2.04602,1.187571 3.3125,1.1875 1.27418,7.2e-5 2.4762,-0.427253 3.375,-1.25 0.89166,-0.846356 1.37495,-2.016631 1.375,-3.25 -5e-5,-1.224343 -0.49978,-2.358207 -1.40625,-3.21875 -0.90652,-0.860393 -2.09371,-1.343667 -3.34375,-1.34375 z m 13.40625,0 c -1.25007,8.3e-5 -2.43726,0.483328 -3.34375,1.34375 -0.64727,0.614445 -0.98392,1.386995 -1.1875,2.21875 l -0.21875,0 0,1 0,1.03125 0.1875,0 c 0.19777,0.840723 0.54333,1.629207 1.1875,2.21875 0.89876,0.82278 2.10078,1.250072 3.375,1.25 1.27416,7.2e-5 2.43487,-0.416877 3.3125,-1.25 0.87759,-0.833007 1.37495,-2.006983 1.375,-3.25 -5e-5,-1.215352 -0.49662,-2.355047 -1.375,-3.21875 -0.8845,-0.86946 -2.06247,-1.343667 -3.3125,-1.34375 z m -375.71875,10.5625 0,2.6875 0,54.09375 0,1.03125 0,1 2.03125,0 3.75,0 1.03125,0 0,-1 0,-40.0625 37.625,42.28125 1.78125,2.03125 0,-2.71875 0,-54.4375 0,-1 -1.03125,0 -4.71875,0 -1.03125,0 0,1 0,39.3125 -37.65625,-42.21875 -1.78125,-2 z m 71.71875,2.625 c -4.45121,5.6e-5 -8.20277,1.275442 -11.09375,3.8125 l -0.0312,0 c -2.8659,2.539096 -4.31251,5.938525 -4.3125,9.9375 -10e-6,3.22047 0.99274,6.08334 3,8.40625 2.03794,2.35854 5.85644,4.84957 11.5,7.6875 0.009,0.005 0.0218,-0.005 0.0312,0 4.31571,2.18104 7.07668,4.14312 8.1875,5.5625 l 0.0312,0 c 1.18705,1.48828 1.78122,3.34643 1.78125,5.71875 -3e-5,3.29782 -0.89161,5.70779 -2.65625,7.46875 -1.76304,1.75933 -4.19663,2.65625 -7.53125,2.65625 -2.60537,0 -4.77779,-0.65749 -6.59375,-1.9375 -1.79589,-1.31131 -3.05528,-3.10535 -3.8125,-5.53125 l -0.375,-1.15625 -1.0625,0.53125 -4.28125,2.1875 -0.0625,0.0312 -0.875,0.375 0.0312,0.0625 -0.0625,0.0312 0.4375,0.84375 0.46875,0.96875 0.0625,-0.0312 c 1.49243,3.06913 3.40638,5.57498 5.90625,7.25 l 0.0312,0 c 2.79622,1.82965 6.12442,2.75 9.9375,2.75 5.21141,0 9.4944,-1.46587 12.625,-4.4375 l 0,-0.0312 c 3.12685,-2.99396 4.68747,-7.07712 4.6875,-12.03125 -3e-5,-3.67115 -0.84167,-6.75388 -2.59375,-9.15625 -1.77373,-2.45863 -5.03073,-4.82727 -9.84375,-7.34375 l -0.0312,0 0,-0.0312 c -0.61753,-0.31747 -1.48693,-0.76459 -2.65625,-1.34375 -3.15107,-1.56619 -5.48273,-3.15615 -6.96875,-4.75 -1.48602,-1.59385 -2.125,-3.13044 -2.125,-4.6875 -1e-5,-2.387096 0.68388,-4.088836 2.09375,-5.40625 l 0,-0.03125 c 1.41454,-1.342688 3.29635,-2.031203 5.84375,-2.03125 1.89552,4.8e-5 3.48341,0.392869 4.78125,1.09375 1.32572,0.70391 2.30804,1.679807 3.03125,3.03125 l 0.5,0.9375 0.90625,-0.53125 3.9375,-2.25 0.875,-0.5 -0.5,-0.875 c -1.37629,-2.382191 -3.21331,-4.236415 -5.46875,-5.4375 l 0,0.03125 c -2.22674,-1.226396 -4.82084,-1.843693 -7.75,-1.84375 z m -90.75,1.28125 0,1 0,51.875 0,1.03125 0,1 1.03125,0 1,0 4.0625,0 1,0 0,-1 0,-52.90625 0,-1 -1,0 -5.0625,0 -1.03125,0 z m 110.53125,0 0,1 0,4.53125 0,1.03125 1.03125,0 14.3125,0 0,46.3125 0,1.03125 0,1 2.0625,0 4.03125,0 1,0 0,-1 0,-47.34375 14.375,0 1,0 0,-1.03125 0,-4.53125 0,-1 -1,0 -35.78125,0 -1.03125,0 z m 44.25,0 0,1 0,51.875 0,1.03125 0,1 1.03125,0 1.03125,0 4.03125,0 1.03125,0 0,-1 0,-52.90625 0,-1 -1.03125,0 -5.0625,0 -1.03125,0 z m 13.59375,0 0,1 0,4.53125 0,1.03125 1.03125,0 14.3125,0 0,46.3125 0,1.03125 0,1 2.03125,0 4.03125,0 1.03125,0 0,-1 0,-47.34375 14.34375,0 1.03125,0 0,-1.03125 0,-4.53125 0,-1 -1.03125,0 -35.75,0 -1.03125,0 z m 44.03125,0 0,2.03125 0,31.96875 c -10e-6,7.31196 1.72685,12.92838 5.3125,16.71875 l 0,0.0312 c 3.58863,3.76775 8.99978,5.59375 16,5.59375 6.97546,0 12.38096,-1.82695 15.96875,-5.59375 l 0,-0.0312 c 3.5856,-3.79037 5.28121,-9.4068 5.28125,-16.71875 l 0,-33 0,-1 -1.03125,0 -5.03125,0 -1.03125,0 0,1 0,34.53125 c -4e-5,5.06103 -1.20285,8.66577 -3.46875,10.96875 -2.2668,2.2821 -5.75814,3.46875 -10.6875,3.46875 -5.008,0 -8.54941,-1.19034 -10.8125,-3.46875 -2.26596,-2.30298 -3.46876,-5.90773 -3.46875,-10.96875 l 0,-34.53125 0,-1 -1.03125,0 -3.96875,0 -1,0 -1.03125,0 z m 48.65625,0 0,1 0,4.53125 0,1.03125 1.03125,0 14.3125,0 0,46.3125 0,1.03125 0,1 1.03125,0 1.03125,0 4.03125,0 1.03125,0 0,-1 0,-47.34375 14.34375,0 1,0 0,-1.03125 0,-4.53125 0,-1 -1,0 -35.78125,0 -1.03125,0 z m 66.78125,0 0,1 0,51.875 0,1.03125 0,1 1.03125,0 1.03125,0 4.03125,0 1.03125,0 0,-1 0,-26.28125 20.65625,0 1.03125,0 0,-1.03125 0,-4.53125 0,-1.03125 -1.03125,0 -20.65625,0 0,-14.46875 21.5,0 1.03125,0 0,-1.03125 0,-4.53125 0,-1 -1.03125,0 -27.59375,0 -1.03125,0 z m 38.90625,0 0,2.03125 0,31.96875 c -10e-6,7.31196 1.69559,12.92837 5.28125,16.71875 l 0,0.0312 c 3.58863,3.76775 9.03103,5.59375 16.03125,5.59375 6.97546,0 12.34971,-1.82695 15.9375,-5.59375 l 0,-0.0312 c 3.5856,-3.79037 5.31246,-9.4068 5.3125,-16.71875 l 0,-33 0,-1 -1.03125,0 -5.0625,0 -1,0 0,1 0,34.53125 c -4e-5,5.06103 -1.2341,8.66577 -3.5,10.96875 -2.26726,2.27095 -5.73932,3.46875 -10.65625,3.46875 -5.008,0 -8.54941,-1.19034 -10.8125,-3.46875 -2.26595,-2.30298 -3.46877,-5.90773 -3.46875,-10.96875 l 0,-34.53125 0,-1 -1.03125,0 -3.96875,0 -2.03125,0 z m 54.09375,0 0,1 0,52.90625 0,1 1.03125,0 5.0625,0 1.03125,0 0,-1 0,-24.1875 1.5,0 19.25,24.8125 0.3125,0.375 0.5,0 5.65625,0 0.34375,0.4375 0.5625,-0.4375 0.625,0 0,-0.5 0.4375,-0.34375 -0.4375,-0.53125 0,-0.65625 -0.53125,0 -18.46875,-23.3125 c 3.75591,-0.3228 6.92086,-1.48225 9.28125,-3.65625 2.80705,-2.56004 4.21872,-6.1361 4.21875,-10.46875 -3e-5,-5.035335 -1.64592,-9.031001 -4.90625,-11.625 l 0,-0.03125 c -0.007,-0.0054 -0.0245,0.0053 -0.0312,0 -3.25587,-2.582225 -7.99637,-3.781197 -14.15625,-3.78125 l -10.25,0 -1.03125,0 z m 7.125,6.21875 4.0625,0 c 4.4768,4.8e-5 7.53855,0.800694 9.15625,2.09375 1.62054,1.295446 2.49997,3.514034 2.5,6.96875 -3e-5,3.25706 -0.87252,5.32677 -2.4375,6.53125 -1.52434,1.15688 -4.62128,1.90628 -9.21875,1.90625 l -4.0625,0 0,-17.5 z m 113.4375,70.75 -0.9375,2.15625 -24.21875,54.375 -0.34375,0 0,0.78125 -0.34375,0.75 0.34375,0.15625 0,0.375 0.84375,0 0.6875,0.3125 0.15625,-0.3125 4.46875,0 0.6875,0 0.25,-0.65625 7.15625,-17.28125 21.34375,0 L 866,222 l 0.25,0.65625 0.6875,0 5.53125,0 1.53125,0 -0.59375,-1.4375 -23.4375,-54.96875 -0.9375,-2.1875 z m -340.75,2.375 c -4.45122,4e-5 -8.23401,1.27545 -11.125,3.8125 -2.8659,2.5391 -4.34375,5.93853 -4.34375,9.9375 0,3.22047 1.024,6.08334 3.03125,8.40625 2.04134,2.36246 5.84088,4.84363 11.5,7.6875 4.33212,2.18686 7.10548,4.14 8.21875,5.5625 1.18706,1.48827 1.81247,3.34642 1.8125,5.71875 -3e-5,3.29782 -0.92286,5.70779 -2.6875,7.46875 -1.76301,1.75932 -4.19664,2.6875 -7.53125,2.6875 -2.61637,0 -4.77299,-0.67796 -6.59375,-1.96875 -1.78609,-1.31022 -3.05786,-3.11364 -3.8125,-5.53125 l -0.34375,-1.15625 -1.09375,0.5625 -4.28125,2.15625 -0.0625,0.0312 -0.875,0.375 0.0312,0.0625 -0.0625,0.0312 0.4375,0.84375 0.5,1 0.0625,-0.0312 c 1.49049,3.05162 3.41637,5.55041 5.90625,7.21875 2.79622,1.82963 6.15567,2.75 9.96875,2.75 5.21141,0 9.4944,-1.46586 12.625,-4.4375 3.12687,-2.99395 4.68746,-7.10839 4.6875,-12.0625 -4e-5,-3.67115 -0.84166,-6.75387 -2.59375,-9.15625 -1.77373,-2.45863 -5.06198,-4.82727 -9.875,-7.34375 -0.61753,-0.31747 -1.51818,-0.76459 -2.6875,-1.34375 -3.15107,-1.56618 -5.45148,-3.1874 -6.9375,-4.78125 C 500.67028,183.3437 500,181.80706 500,180.25 c -10e-6,-2.38709 0.71513,-4.08884 2.125,-5.40625 1.41453,-1.34269 3.29636,-2.0312 5.84375,-2.03125 1.89552,5e-5 3.45218,0.36162 4.75,1.0625 1.32571,0.70391 2.3393,1.67981 3.0625,3.03125 l 0.5,0.9375 0.90625,-0.53125 3.90625,-2.21875 0.90625,-0.53125 -0.53125,-0.875 c -1.3763,-2.3822 -3.18206,-4.20516 -5.4375,-5.40625 -2.22674,-1.22639 -4.82084,-1.84371 -7.75,-1.84375 z m 211.40625,0 c -4.45121,4e-5 -8.20277,1.27545 -11.09375,3.8125 l -0.0312,0 c -2.8659,2.53909 -4.31251,5.93852 -4.3125,9.9375 -10e-6,3.22048 0.99274,6.08334 3,8.40625 2.03794,2.35854 5.85644,4.84956 11.5,7.6875 0.009,0.005 0.0218,-0.005 0.0312,0 4.31571,2.18104 7.07667,4.14312 8.1875,5.5625 l 0.0312,0 c 1.18705,1.48828 1.78122,3.34642 1.78125,5.71875 -3e-5,3.29782 -0.89161,5.70779 -2.65625,7.46875 -1.76302,1.75933 -4.19664,2.6875 -7.53125,2.6875 -2.6,0 -4.78014,-0.66275 -6.59375,-1.9375 -0.012,-0.009 -0.0194,-0.0225 -0.0312,-0.0312 -1.77681,-1.30916 -3.02908,-3.12151 -3.78125,-5.53125 l -0.375,-1.15625 -1.0625,0.5625 -4.28125,2.15625 -0.0625,0.0312 -0.875,0.375 0.0312,0.0625 -0.0625,0.0312 0.4375,0.84375 0.46875,1 0.0937,-0.0312 c 1.49033,3.0502 3.38591,5.55095 5.875,7.21875 l 0.0312,0 c 2.79622,1.82963 6.12441,2.75 9.9375,2.75 5.21141,0 9.4944,-1.46586 12.625,-4.4375 3.12686,-2.99395 4.68746,-7.10839 4.6875,-12.0625 -4e-5,-3.67115 -0.84167,-6.75388 -2.59375,-9.15625 -1.77373,-2.45863 -5.06198,-4.82727 -9.875,-7.34375 -0.61753,-0.31747 -1.48693,-0.76459 -2.65625,-1.34375 -3.15107,-1.56618 -5.48272,-3.1874 -6.96875,-4.78125 -1.48603,-1.59385 -2.12501,-3.13044 -2.125,-4.6875 -2e-5,-2.38709 0.68388,-4.08884 2.09375,-5.40625 1.41454,-1.3427 3.29635,-2.0312 5.84375,-2.03125 1.89552,5e-5 3.48341,0.36162 4.78125,1.0625 1.32571,0.70391 2.30805,1.67981 3.03125,3.03125 l 0.5,0.9375 0.90625,-0.53125 3.9375,-2.21875 0.875,-0.53125 -0.5,-0.875 c -1.37629,-2.3822 -3.21331,-4.20516 -5.46875,-5.40625 -2.22674,-1.22639 -4.82083,-1.84371 -7.75,-1.84375 z m -158.5,0.0937 c -4.10066,6e-5 -8.05892,0.71084 -11.875,2.125 -3.78979,1.41418 -7.06306,3.37619 -9.78125,5.90625 -2.79436,2.57747 -4.93733,5.63997 -6.4375,9.1875 l 0,0.0312 c -1.4743,3.54865 -2.21875,7.36536 -2.21875,11.4375 0,4.14007 0.70587,7.96435 2.15625,11.46875 1.45015,3.50393 3.59155,6.60317 6.40625,9.25 2.74282,2.57855 6.05098,4.58475 9.84375,6 3.79343,1.41552 7.75632,2.125 11.90625,2.125 3.09244,0 6.21435,-0.4526 9.34375,-1.34375 3.15312,-0.86576 6.12194,-2.11676 8.9375,-3.75 l 0.53125,-0.3125 0,-0.5625 0,-5.65625 0,-2.03125 -1.65625,1.21875 c -2.63434,1.96306 -5.40444,3.4377 -8.34375,4.4375 -2.94055,1.0002 -5.94572,1.50001 -9.03125,1.5 -3.18299,1e-5 -6.13599,-0.53266 -8.90625,-1.59375 -2.74495,-1.06068 -5.17443,-2.59546 -7.3125,-4.625 -2.15287,-2.0665 -3.75083,-4.41619 -4.8125,-7.0625 -0.004,-0.009 0.004,-0.0223 0,-0.0312 -1.03117,-2.65171 -1.56251,-5.65793 -1.5625,-9.03125 -10e-6,-6.73846 2.11351,-12.07486 6.40625,-16.21875 4.31881,-4.1456 9.87621,-6.18745 16.875,-6.1875 3.0804,5e-5 6.00556,0.52251 8.78125,1.5625 2.6351,0.98742 5.2195,2.52437 7.78125,4.5625 l 0,0.5 0.6875,0 0.5,0.4375 0.34375,-0.40625 0.53125,0 0.0312,-0.6875 0.40625,-0.5 -0.40625,-0.3125 0.0625,-4.84375 0,-0.53125 -0.40625,-0.3125 c -2.58214,-1.92575 -5.47167,-3.36457 -8.625,-4.3125 -3.12781,-0.97298 -6.51433,-1.43744 -10.15625,-1.4375 z m 339.09375,0 c -4.10066,6e-5 -8.05893,0.71084 -11.875,2.125 l -0.0312,0 c -3.7898,1.41418 -7.0318,3.37619 -9.75,5.90625 -2.79437,2.57747 -4.96859,5.63997 -6.46875,9.1875 l 0,0.0312 c -1.47431,3.54865 -2.21876,7.36536 -2.21875,11.4375 -10e-6,4.14007 0.73712,7.96435 2.1875,11.46875 1.45016,3.50393 3.59155,6.60317 6.40625,9.25 2.74283,2.57855 6.01974,4.58475 9.8125,6 3.79343,1.41552 7.78758,2.125 11.9375,2.125 3.08258,0 6.19317,-0.45825 9.3125,-1.34375 0.01,-0.003 0.0217,0.003 0.0312,0 3.1426,-0.86547 6.13044,-2.12169 8.9375,-3.75 l 0.5,-0.3125 0,-0.5625 0,-5.65625 0,-2.03125 -1.625,1.21875 c -2.63434,1.96306 -5.40444,3.4377 -8.34375,4.4375 -2.94055,1.0002 -5.94572,1.50001 -9.03125,1.5 -3.18299,1e-5 -6.16723,-0.53266 -8.9375,-1.59375 -2.74495,-1.06068 -5.17445,-2.59546 -7.3125,-4.625 -2.15286,-2.0665 -3.75083,-4.41619 -4.8125,-7.0625 -0.004,-0.009 0.004,-0.0223 0,-0.0312 -1.03115,-2.65169 -1.5625,-5.65797 -1.5625,-9.03125 0,-6.73846 2.14476,-12.07486 6.4375,-16.21875 4.31882,-4.1456 9.84497,-6.18745 16.84375,-6.1875 3.08041,5e-5 6.00554,0.52251 8.78125,1.5625 2.64723,0.99196 5.23927,2.54129 7.8125,4.59375 l 0,0.46875 0.65625,0 0.53125,0.4375 0.34375,-0.40625 0.53125,0 0,-0.6875 0.40625,-0.5 -0.40625,-0.34375 0.0937,-4.8125 0,-0.53125 -0.4375,-0.3125 c -2.58215,-1.92575 -5.44042,-3.36457 -8.59375,-4.3125 -3.12781,-0.97298 -6.51433,-1.43744 -10.15625,-1.4375 z m -592.65625,1.1875 0,1.03125 0,51.84375 0,1.03125 0,1.03125 2.03125,0 7.65625,0 1.71875,0 c 6.91185,0 11.92423,-0.36917 15.1875,-1.15625 3.21431,-0.77529 6.10193,-2.09716 8.625,-3.9375 3.19275,-2.32354 5.65533,-5.41864 7.34375,-9.25 1.68796,-3.85557 2.5312,-8.23289 2.53125,-13.09375 -5e-5,-4.86081 -0.84223,-9.22951 -2.53125,-13.0625 -1.68835,-3.83115 -4.17322,-6.99739 -7.40625,-9.4375 -2.46259,-1.85473 -5.3816,-3.1568 -8.75,-3.90625 -3.41575,-0.75987 -8.9496,-1.0937 -16.71875,-1.09375 l -8.65625,0 -1.03125,0 z m 54.34375,0 0,1.03125 0,51.84375 0,1.03125 0,1.03125 1,0 1.03125,0 26.5625,0 1.03125,0 0,-1.03125 0,-4.53125 0,-1 -1.03125,0 -21.5,0 0,-20.75 21.5,0 1.03125,0 0,-1.03125 0,-4.5 0,-1.03125 -1.03125,0 -21.5,0 0,-14.5 21.5,0 1.03125,0 0,-1.03125 0,-4.5 0,-1.03125 -1.03125,0 -27.59375,0 -1,0 z m 39.78125,0 0,2.03125 0,31.96875 c -10e-6,7.31196 1.72684,12.95963 5.3125,16.75 3.58862,3.76775 8.99978,5.59375 16,5.59375 6.97546,0 12.38096,-1.82695 15.96875,-5.59375 3.5856,-3.79037 5.31246,-9.43805 5.3125,-16.75 l 0,-32.96875 0,-1.03125 -1.03125,0 -5.0625,0 -1.03125,0 0,1.03125 0,34.53125 c -4e-5,5.06104 -1.20285,8.63453 -3.46875,10.9375 -2.2668,2.28211 -5.75814,3.5 -10.6875,3.5 -5.00799,0 -8.51816,-1.22158 -10.78125,-3.5 -2.26595,-2.30297 -3.46877,-5.87647 -3.46875,-10.9375 l 0,-34.53125 0,-1.03125 -1.03125,0 -3.96875,0 -1.03125,0 -1.03125,0 z m 48.6875,0 0,1.03125 0,4.5 0,1.03125 1.03125,0 14.28125,0 0,46.3125 0,1.03125 0,1.03125 2.0625,0 4.03125,0 1.03125,0 0,-1.03125 0,-47.34375 14.34375,0 1.03125,0 0,-1.03125 0,-4.5 0,-1.03125 -1.03125,0 -35.75,0 -1.03125,0 z m 138.78125,0 0,1.03125 0,51.84375 0,1.03125 0,1.03125 1,0 1.03125,0 4.03125,0 1.03125,0 0,-1.03125 0,-26.28125 28.28125,0 0,26.28125 0,1.03125 1.03125,0 5.0625,0 1.03125,0 0,-1.03125 0,-52.875 0,-1.03125 -1.03125,0 -5.0625,0 -1.03125,0 0,1.03125 0,20.40625 -28.28125,0 0,-20.40625 0,-1.03125 -1.03125,0 -5.0625,0 -1,0 z m 54.3125,0 0,1.03125 0,51.84375 0,1.03125 0,1.03125 1.03125,0 1.03125,0 26.5625,0 1.03125,0 0,-1.03125 0,-4.53125 0,-1 -1.03125,0 -21.5,0 0,-20.75 21.5,0 1.03125,0 0,-1.03125 0,-4.5 0,-1.03125 -1.03125,0 -21.5,0 0,-14.5 21.5,0 1.03125,0 0,-1.03125 0,-4.5 0,-1.03125 -1.03125,0 -27.59375,0 -1.03125,0 z m 101.375,0 0,1.03125 0,51.84375 0,1.03125 0,1.03125 2.0625,0 4.03125,0 1.03125,0 0,-1.03125 0,-22.71875 4.84375,0 c 6.54255,2e-5 11.43696,-1.16068 14.6875,-3.71875 l 0.0312,0 c 3.24614,-2.58095 4.81247,-6.67176 4.8125,-11.90625 -3e-5,-2.68162 -0.50117,-5.13624 -1.53125,-7.375 -1.0314,-2.24135 -2.49943,-4.06332 -4.40625,-5.375 l -0.0312,0 c -1.51719,-1.02114 -3.27138,-1.75499 -5.28125,-2.1875 -2.02575,-0.44167 -5.01945,-0.62495 -9.0625,-0.625 l -10.15625,0 -1.03125,0 z m 38.96875,0 0,1.03125 0,52.875 0,1.03125 1.03125,0 5.0625,0 1.03125,0 0,-1.03125 0,-24.1875 1.5,0 19.25,24.8125 0.3125,0.40625 0.5,0 5.6875,0 0.3125,0.40625 0.5,-0.40625 0.6875,0 0,-0.53125 0.4375,-0.34375 -0.4375,-0.53125 0,-0.65625 -0.53125,0 -18.5,-23.3125 c 3.7697,-0.3187 6.94565,-1.47628 9.3125,-3.65625 2.80704,-2.56003 4.21871,-6.1361 4.21875,-10.46875 -4e-5,-5.05337 -1.65368,-9.06296 -4.9375,-11.65625 -3.2564,-2.59329 -7.98365,-3.7812 -14.15625,-3.78125 l -10.25,0 -1.03125,0 z m 145.4375,0 0,1.03125 0,51.84375 0,1.03125 0,1.03125 1.03125,0 1.03125,0 4.03125,0 1.03125,0 0,-1.03125 0,-26.28125 28.25,0 0,26.28125 0,1.03125 1.03125,0 5.0625,0 1.03125,0 0,-1.03125 0,-52.875 0,-1.03125 -1.03125,0 -5.0625,0 -1.03125,0 0,1.03125 0,20.40625 -28.25,0 0,-20.40625 0,-1.03125 -1.03125,0 -5.0625,0 -1.03125,0 z m 54.34375,0 0,1.03125 0,51.84375 0,1.03125 0,1.03125 2.03125,0 26.5625,0 1.0312,0 0,-1.03125 0,-4.53125 0,-1 -1.0312,0 -21.5,0 0,-20.75 21.5,0 1.0312,0 0,-1.03125 0,-4.5 0,-1.03125 -1.0312,0 -21.5,0 0,-14.5 21.5,0 1.0312,0 0,-1.03125 0,-4.5 0,-1.03125 -1.0312,0 -27.5625,0 -1.03125,0 z m -668.9375,6.03125 3.53125,0 0.9375,0 c 6.35923,5e-5 10.81643,0.32692 13.1875,0.90625 2.42962,0.59374 4.45025,1.59601 6.09375,3 2.22294,1.86057 3.89446,4.21764 5.03125,7.15625 l 0,0.0312 c 1.16127,2.93964 1.74996,6.37001 1.75,10.3125 -4e-5,3.84592 -0.57968,7.21152 -1.71875,10.15625 -1.13897,2.94431 -2.79033,5.38303 -5,7.34375 -1.54519,1.3556 -3.44187,2.31473 -5.71875,2.90625 -2.22357,0.55544 -6.27724,0.87501 -12,0.875 l -6.09375,0 0,-42.6875 z m 437.3125,0.21875 2.4375,0 c 4.02234,5e-5 6.86478,0.20866 8.375,0.59375 1.55185,0.3958 2.69426,1.07245 3.53125,1.96875 0.87343,0.93825 1.53252,1.98894 1.96875,3.1875 0.43534,1.17459 0.65622,2.47764 0.65625,3.9375 -3e-5,3.51186 -0.94608,5.70489 -2.75,6.96875 -1.72179,1.20118 -5.72405,2.00003 -11.78125,2 l -2.4375,0 0,-18.65625 z m 38.96875,0 4.0625,0 c 4.4768,5e-5 7.53856,0.76944 9.15625,2.0625 1.62054,1.29544 2.49997,3.51404 2.5,6.96875 -3e-5,3.25707 -0.87253,5.32678 -2.4375,6.53125 -1.51799,1.16459 -4.60329,1.90628 -9.21875,1.90625 l -4.0625,0 0,-17.46875 z m 57.65625,5.25 8,19.34375 -16.3125,0 8.3125,-19.34375 z"
       style="color:#000000;fill:#000000;fill-opacity:1;fill-rule:nonzero;stroke:none"
       id="path7"
       inkscape:connector-curvature="0" />
  </g>
</svg>
