<?xml version="1.0" encoding="UTF-8" standalone="no"?>
<svg
   xmlns:dc="http://purl.org/dc/elements/1.1/"
   xmlns:cc="http://creativecommons.org/ns#"
   xmlns:rdf="http://www.w3.org/1999/02/22-rdf-syntax-ns#"
   xmlns:svg="http://www.w3.org/2000/svg"
   xmlns="http://www.w3.org/2000/svg"
   version="1.1"
   id="svg2"
   viewBox="0 0 77.146042 18.528435"
   height="5.229136mm"
   width="21.772327mm">
  <defs
     id="defs4" />
  <metadata
     id="metadata7">
    <rdf:RDF>
      <cc:Work
         rdf:about="">
        <dc:format>image/svg+xml</dc:format>
        <dc:type
           rdf:resource="http://purl.org/dc/dcmitype/StillImage" />
        <dc:title></dc:title>
      </cc:Work>
    </rdf:RDF>
  </metadata>
  <g
     transform="translate(-64.629793,17.30505)"
     id="layer1">
    <path
       d="M 11.404297,0 C 9.0672359,0 5.6412381,3.2296125 5.1738281,11.570312 c 0.031159,-0.664739 -3.8024726,-0.705595 -4.1660156,0.02149 -0.311607,0.61282 1.5993476,0.852532 1.9628906,1.195312 -0.436251,0.52962 -0.9562407,0.705253 -1.5898437,0.539063 -0.166189,-0.0414 -0.3416225,-0.06177 -0.50781252,-0.07227 -0.38431801,-0.03116 -0.70739225,0.0942 -0.83203126,0.478516 -0.13503099,0.38431 0.07448738,0.715908 0.39648438,0.861328 0.415477,0.19736 0.8717214,0.342531 1.3183594,0.394531 0.550508,0.0625 1.1116014,0.0098 1.6621094,0.0098 -0.4258651,1.0283 -1.1527133,1.465008 -2.1914063,1.298828 -0.519347,-0.08311 -0.93475012,0.124901 -1.11132812,0.550781 -0.18696401,0.46739 -0.07350113,1.007908 0.40429687,1.267578 0.394703,0.21813 0.87172135,0.374266 1.31835935,0.384766 2.015065,0.02075 3.7198371,-0.821305 5.2363282,-2.078125 1.963132,-1.62036 2.9189721,-1.63074 4.8613282,0 1.28798,1.08025 2.732001,1.807985 4.404297,2.046875 0.695923,0.10387 1.391788,0.10315 2.02539,-0.25 0.508951,-0.29084 0.715641,-0.830169 0.539063,-1.318359 -0.186966,-0.49858 -0.601394,-0.696876 -1.224609,-0.572266 -0.903662,0.18697 -1.869764,-0.456509 -2.087891,-1.412109 0.135031,0.0209 0.249026,0.04223 0.363281,0.05273 0.882888,0.06231 1.776379,0.176304 2.576172,-0.322266 0.321996,-0.19735 0.570577,-0.488837 0.435547,-0.904296 -0.13503,-0.405221 -0.488106,-0.509616 -0.882813,-0.478516 -0.186964,0.0104 -0.373581,0.06265 -0.560546,0.09375 -0.612829,0.10387 -1.111776,-0.07183 -1.496094,-0.601563 0.415477,-0.29084 2.10946,-0.291386 1.912109,-0.873047 -0.228512,-0.675139 -3.90607,-0.935005 -3.84375,-0.291015 C 13.2232,2.9706469 13.876388,0 11.404297,0 Z m 13.712891,2.8710938 0,12.9902342 3.845703,0 0,-12.9902342 -3.845703,0 z m 7.578124,0 -3.621093,6.0664062 3.546875,6.923828 4.367187,0 -4.011719,-7.2226561 3.675782,-5.7675781 -3.957032,0 z m 25.419922,0 -3.789062,12.9902342 4.013672,0 0.484375,-2.519531 3.080078,0 0.503906,2.519531 4.068359,0 -3.769531,-12.9902342 -4.591797,0 z m 8.708985,0 0,12.9902342 3.845703,0 0,-4.050781 1.267578,0 c 1.592813,0 2.855769,-0.391819 3.789062,-1.175781 0.945734,-0.7839631 1.419922,-1.9156661 1.419922,-3.3964848 0,-1.4310426 -0.498627,-2.5138595 -1.49414,-3.2480468 C 74.669284,3.243603 73.289239,2.8710938 71.509766,2.8710938 l -4.685547,0 z m -58.6699221,2.53125 c 0.363544,0 0.6640625,0.3005124 0.6640625,0.6640624 0,0.36353 -0.3005185,0.6640626 -0.6640625,0.6640626 -0.363542,0 -0.6640625,-0.3005325 -0.6640625,-0.6640626 0,-0.36355 0.3005205,-0.6640624 0.6640625,-0.6640624 z m 2.5859371,0 c 0.373929,0 0.664063,0.3005124 0.664063,0.6640624 0,0.36353 -0.300521,0.6640626 -0.664063,0.6640626 -0.363543,0 -0.664062,-0.3005325 -0.664062,-0.6640626 0,-0.36355 0.300519,-0.6640624 0.664062,-0.6640624 z M 41.6875,5.5214844 c -1.045287,0 -1.955042,0.2168091 -2.726562,0.6523437 -0.77152,0.4355347 -1.367929,1.0583371 -1.791016,1.8671875 -0.410647,0.8088505 -0.617188,1.7481881 -0.617188,2.8183594 0,1.717252 0.454882,3.043274 1.363282,3.976563 0.920846,0.933288 2.178671,1.398437 3.771484,1.398437 1.04528,0 1.953089,-0.216809 2.724609,-0.652344 0.77152,-0.435535 1.362791,-1.058337 1.773438,-1.867187 0.423087,-0.808851 0.634765,-1.748188 0.634765,-2.81836 0,-1.7172513 -0.461972,-3.0432732 -1.382812,-3.9765621 -0.9084,-0.9332887 -2.157187,-1.3984375 -3.75,-1.3984375 z m 28.982422,0.017578 0.783203,0 c 1.182167,0 1.773437,0.5668281 1.773437,1.6992187 0,1.2443854 -0.554609,1.8671876 -1.662109,1.8671876 l -0.894531,0 0,-3.5664063 z m -10.314453,0.019531 1.007812,5.0957032 -1.998047,0 0.990235,-5.0957032 z m -6.386719,0.017578 c -0.547533,0 -1.051299,0.1994529 -1.511719,0.5976562 -0.460426,0.3982034 -0.796266,0.9283667 -1.007812,1.5878907 l -0.298828,-1.8671876 -3.230469,0 0,9.9667968 3.697266,0 0,-4.535156 c 0.161766,-0.721744 0.373445,-1.264128 0.634765,-1.6250001 0.273767,-0.3608718 0.682942,-0.5410157 1.230469,-0.5410157 0.273767,0 0.580029,0.05084 0.916016,0.1503907 L 54.976562,5.7441406 C 54.628136,5.632146 54.29229,5.5761719 53.96875,5.5761719 Z M 41.6875,8.171875 c 0.47286,0 0.813844,0.2116746 1.025391,0.6347656 0.211546,0.4106472 0.318359,1.1067794 0.318359,2.0898434 0,0.945733 -0.106813,1.629644 -0.318359,2.052735 -0.211547,0.423091 -0.552531,0.634765 -1.025391,0.634765 -0.472867,0 -0.815797,-0.204587 -1.027344,-0.615234 -0.211546,-0.423091 -0.318359,-1.126311 -0.318359,-2.109375 0,-0.9457328 0.106813,-1.6296434 0.318359,-2.0527344 C 40.871703,8.3835496 41.214633,8.171875 41.6875,8.171875 Z"
       style="fill:#ffffff;fill-opacity:1"
       transform="translate(64.629793,-17.30505)"
       id="path4230" />
  </g>
</svg>
