<?xml version="1.0" encoding="UTF-8" standalone="no"?>
<!-- Created with Inkscape (http://www.inkscape.org/) -->

<svg
   xmlns:dc="http://purl.org/dc/elements/1.1/"
   xmlns:cc="http://creativecommons.org/ns#"
   xmlns:rdf="http://www.w3.org/1999/02/22-rdf-syntax-ns#"
   xmlns:svg="http://www.w3.org/2000/svg"
   xmlns="http://www.w3.org/2000/svg"
   version="1.1"
   width="295.9375"
   height="77.052986"
   id="svg2">
  <defs
     id="defs4" />
  <metadata
     id="metadata7">
    <rdf:RDF>
      <cc:Work
         rdf:about="">
        <dc:format>image/svg+xml</dc:format>
        <dc:type
           rdf:resource="http://purl.org/dc/dcmitype/StillImage" />
        <dc:title></dc:title>
      </cc:Work>
    </rdf:RDF>
  </metadata>
  <path
     d="m 61.588905,50.086287 c -4.58857,-7.491533 -9.36444,-14.514869 -15.73224,-22.380979 l 10.01994,-10.394513 c 4.40127,-4.49492 8.52163,-6.742388 13.20384,-7.02332 0.65551,-1.6855946 1.03008,-5.1504366 1.03008,-7.3042526 -2.24746,0.187289 -10.67545,0.280933 -14.32757,0.280933 -3.65212,0 -8.2407,-0.09364 -10.5818,-0.280933 0,2.24746 0.18729,5.244081 0.8428,7.3042526 3.37119,0.187288 3.83941,2.809334 -1.96653,8.615272 l -12.64198,12.548332 0,-10.862735 c 0,-8.427975 0.93645,-9.739004 6.08688,-10.300869 0.8428,-2.4347486 0.8428,-4.7758596 0.8428,-7.3042526 -3.74577,0.187289 -11.33096,0.280933 -15.82588,0.280933 -4.49492,0 -13.6720706,-0.09364 -16.7623306,-0.280933 0,2.434749 0.37458,5.431369 0.8428,7.3042526 5.2440806,0.749153 6.0868806,1.872894 6.0868806,10.300869 l 0,28.467856 c 0,8.615264 -0.93645,10.113581 -5.9932306,10.488158 -0.46822,1.779239 -0.93645,5.056792 -0.93645,7.304252 4.4012796,-0.187288 11.2373206,-0.280932 17.6987706,-0.280932 6.46145,0 12.08011,0.09364 14.88944,0.280932 0,-2.434748 -0.28093,-5.618657 -0.74916,-7.304252 -5.05678,-0.374577 -6.18052,-1.872894 -6.18052,-10.488158 l 0,-10.488157 c 7.39789,8.98984 12.73563,18.822507 17.60512,28.842433 4.68221,-0.655509 19.0098,-0.842798 23.692,-0.842798 0.93645,-1.872884 1.12373,-4.213995 1.12373,-7.02332 -4.77585,-0.561865 -8.14705,-2.809335 -12.26739,-9.458071"
     id="path4255"
     style="font-size:93.64426422px;font-style:normal;font-variant:normal;font-weight:bold;font-stretch:normal;text-align:start;line-height:125%;letter-spacing:-3.5px;word-spacing:0px;writing-mode:lr-tb;text-anchor:start;fill:#ffffff;fill-opacity:1;stroke:#496000;stroke-width:3;stroke-miterlimit:4;stroke-opacity:1;stroke-dasharray:none;font-family:Vollkorn;-inkscape-font-specification:Vollkorn Bold" />
  <path
     d="m 100.10567,22.835806 c -14.421205,0 -25.939465,7.304269 -25.939465,23.130134 0,13.203828 8.33436,21.444536 25.09667,21.444536 16.294075,0 26.220385,-8.334354 26.220385,-23.036489 0,-12.454675 -8.14707,-21.538181 -25.37759,-21.538181 m -1.404665,6.742387 c 4.588565,0 8.989845,5.712313 8.989845,17.886055 0,7.116957 -2.43475,12.73562 -6.64874,12.73562 -6.086865,0 -9.083495,-8.147061 -9.083495,-17.79241 0,-7.023313 2.15383,-12.829265 6.74239,-12.829265"
     id="path4257"
     style="font-size:93.64426422px;font-style:normal;font-variant:normal;font-weight:bold;font-stretch:normal;text-align:start;line-height:125%;letter-spacing:-3.5px;word-spacing:0px;writing-mode:lr-tb;text-anchor:start;fill:#ffffff;fill-opacity:1;stroke:#496000;stroke-width:3;stroke-miterlimit:4;stroke-opacity:1;stroke-dasharray:none;font-family:Vollkorn;-inkscape-font-specification:Vollkorn Bold" />
  <path
     d="m 151.07444,46.996026 c 0,-5.150429 3.09026,-10.207224 5.61865,-10.207224 2.5284,0 3.55848,1.872889 3.65213,5.993233 2.62204,0 7.3979,-0.18729 9.92629,-1.31102 -0.37458,-4.588564 0.18729,-11.611893 0.93644,-15.919525 -2.24746,-1.591951 -4.30764,-2.247462 -6.92967,-2.247462 -5.05679,0 -9.45808,3.277553 -12.17376,7.585185 -0.74915,1.217374 -1.87288,4.494927 -2.71568,6.836031 1.12373,-4.588564 1.6856,-6.929677 1.6856,-8.896205 0,-3.277546 -1.12374,-5.056791 -3.18391,-5.993233 -2.99661,1.498307 -10.7691,3.090261 -20.03987,3.090261 -1.03009,1.966528 -1.21738,4.682216 -1.21738,7.02332 6.08687,0.561865 6.64875,2.247468 6.64875,8.334339 l 0,7.772474 c 0,8.615264 -1.21738,10.113581 -6.27417,10.488158 -0.46822,1.779239 -0.65551,3.933062 -0.65551,7.304252 4.30763,-0.187288 12.17376,-0.280932 18.91614,-0.280932 5.89959,0 13.29749,0.09364 16.85597,0.280932 0,-2.341104 -0.0937,-5.24408 -0.8428,-7.304252 -7.86611,-0.561865 -10.20722,-3.371202 -10.20722,-11.4246 l 0,-1.123732"
     id="path4259"
     style="font-size:93.64426422px;font-style:normal;font-variant:normal;font-weight:bold;font-stretch:normal;text-align:start;line-height:125%;letter-spacing:-3.5px;word-spacing:0px;writing-mode:lr-tb;text-anchor:start;fill:#ffffff;fill-opacity:1;stroke:#496000;stroke-width:3;stroke-miterlimit:4;stroke-opacity:1;stroke-dasharray:none;font-family:Vollkorn;-inkscape-font-specification:Vollkorn Bold" />
  <path
     d="m 231.61531,59.544358 c -2.71568,-0.280933 -3.93306,-1.591962 -8.33434,-11.237312 L 202.49195,2.7022904 c -2.90297,0 -4.68222,0 -7.11697,0.561865 L 175.5224,50.086287 c -3.09026,7.210601 -4.49493,8.896206 -7.49154,9.458071 -0.74916,2.341104 -0.93645,4.494927 -0.93645,7.304252 1.87289,-0.187288 5.8996,-0.280932 8.98985,-0.280932 3.09026,0 8.80257,0.09364 10.95638,0.280932 0,-2.996613 -0.28093,-5.337725 -0.74915,-7.304252 -4.0267,-0.655509 -4.68221,-4.494928 -3.55848,-7.210608 l 0.18728,-0.374578 c 7.21061,-0.749153 14.42123,-0.936442 21.25725,-0.936442 l 0.65551,1.404664 c 1.87289,4.213987 1.21737,6.180522 -2.90297,7.116964 -0.46822,1.872883 -0.74915,3.839418 -0.74915,7.304252 3.55847,-0.280932 13.48477,-0.280932 16.48139,-0.280932 2.99661,0 10.95638,0 14.70215,0.280932 0,-2.996613 -0.28094,-5.712301 -0.74916,-7.304252 m -30.05981,-14.608505 -15.91952,0 3.09026,-7.959763 c 1.87288,-4.588564 3.37119,-8.896209 4.58857,-12.922908 1.03008,4.026699 2.62204,8.334344 4.68221,12.922908 l 3.55848,7.959763"
     id="path4261"
     style="font-size:93.64426422px;font-style:normal;font-variant:normal;font-weight:bold;font-stretch:normal;text-align:start;line-height:125%;letter-spacing:-3.5px;word-spacing:0px;writing-mode:lr-tb;text-anchor:start;fill:#496000;fill-opacity:1;stroke:#ffffff;stroke-width:3;stroke-miterlimit:4;stroke-opacity:1;stroke-dasharray:none;font-family:Vollkorn;-inkscape-font-specification:Vollkorn Bold" />
  <path
     d="m 267.67298,38.94262 c -0.56186,0 -1.31102,0 -2.06017,-0.187289 -0.93644,1.779239 -1.31102,4.026706 -0.8428,6.742387 1.6856,0.655509 3.65213,0.936443 6.46146,0.936443 13.5784,0 22.19369,-10.113593 22.19369,-22.942845 0,-11.050012 -5.43139,-20.4144486 -20.88267,-20.4144486 -8.80256,0 -14.70216,0.187288 -20.32081,0.187288 -5.52501,0 -10.30087,-0.09364 -16.20046,-0.280933 0,2.996614 0.37458,5.431369 0.8428,7.3042526 5.24408,0.749153 6.08688,1.872894 6.08688,10.300869 l 0,28.467856 c 0,8.615264 -1.21738,10.113581 -6.27417,10.488158 -0.46822,1.779239 -0.65551,3.933062 -0.65551,7.304252 4.30764,-0.187288 12.17376,-0.280932 18.91614,-0.280932 5.89959,0 14.23394,0.09364 17.79241,0.280932 0,-2.341104 -0.0936,-5.24408 -0.84279,-7.304252 -7.86611,-0.561865 -10.20723,-3.371202 -10.20723,-11.4246 l 0,-36.989485 c 1.12373,-0.468221 2.43475,-0.65551 4.02671,-0.65551 6.55509,0 9.92629,6.274175 9.92629,14.70215 0,10.207215 -4.02671,13.765707 -7.95977,13.765707"
     id="path4263"
     style="font-size:93.64426422px;font-style:normal;font-variant:normal;font-weight:bold;font-stretch:normal;text-align:start;line-height:125%;letter-spacing:-3.5px;word-spacing:0px;writing-mode:lr-tb;text-anchor:start;fill:#496000;fill-opacity:1;stroke:#ffffff;stroke-width:3;stroke-miterlimit:4;stroke-opacity:1;stroke-dasharray:none;font-family:Vollkorn;-inkscape-font-specification:Vollkorn Bold" />
  <g
     transform="matrix(0.47473464,0,0,0.47473464,90.028005,-149.35736)"
     id="g4167"
     style="fill:#496000;fill-opacity:1">
    <g
       id="g4171"
       style="fill:#496000;fill-opacity:1">
      <path
         d="m -41.0625,316.71875 c -9.576308,1.01227 -20.437266,3.97659 -29.25,7.9375 -12.689388,4.5451 -17.191568,11.74018 -24.8125,23.4375 -11.15001,-20.80692 -41.92684,-26.49295 -41.8125,21.8125 19.56928,-37.23779 25.50612,-2.99825 18.56887,0.52807 -6.86631,3.49026 -13.44723,13.16503 -18.87854,20.52748 -4.82783,2.6553 -11.25044,5.91984 -19.19033,14.56945 -12.14063,1.68579 -22.40697,-0.0589 -25.34375,5.0625 -1.92028,4.88459 -0.83547,28.6183 -1.34375,35.5625 -0.55023,7.5173 -4.47505,20.2185 -4.40625,27.78125 0.0449,4.93417 13.37698,-12.52554 26.0625,-13.9375 14.32568,-1.59452 20.40751,-0.6761 31.21875,-1.84375 3.43365,-0.38537 6.60948,-1.10948 8.71875,-3.21875 4.52684,-4.79348 0.17472,-20.54012 -0.29959,-24.04322 8.88011,-4.01684 12.99872,-10.88406 16.73709,-16.70678 3.77753,-0.95969 15.445077,-3.54975 21,-16.34375 7.291276,-0.62721 24.237611,-3.90486 11.375,16.46875 -6.517142,10.32276 3.151699,23.79009 20.8125,23.75 1.965174,-0.004 -17.965788,-13.53523 -1.5,-27.15625 6.115872,-5.05925 1.147006,-24.90772 -1.8125,-28.03125 8.5569,-3.5296 16.780975,-7.81843 24.028066,-11.61639 -5.695239,-3.30642 -12.406435,-4.85672 -18.403066,-4.82111 5.354884,-3.41771 16.921224,-11.53597 20.25,-16.09375 -11.616163,-0.86442 -19.285929,-0.0412 -27.78125,2.8125 9.452491,-6.90785 8.090662,-15.36938 18.71875,-24 -8.87593,1.32852 -13.462677,3.88184 -18.255425,7.21014 6.099195,-6.84313 11.408663,-11.09351 15.599175,-19.64764 z m -12.441804,7.73597 c -11.095923,11.19905 -13.975386,11.23168 -18.558196,17.23278 -6.054124,7.92777 -5.560879,14.47415 -6.5625,18.21875 -1.7769,6.64303 -7.715317,4.85942 -13.0625,15.53125 14.183728,-6.21639 24.683497,-12.45862 46.25,-18.375 -9.461391,8.73077 -24.403941,17.1424 -25.21875,18.25 -2.183992,3.18854 -5.444043,10.06958 -11.15625,15.3125 2.408839,-7.40462 1.715415,-13.1914 0.25,-11.875 -5.549237,4.98497 -4.613076,19.29372 -12.65625,24.78125 -19.7524,13.47626 -22.75335,1.44128 -25.46875,3.53125 -3.95231,3.04198 5.19443,6.03907 8.84375,7.09375 -12.45497,22.57734 -15.33207,-1.01345 -17.5625,0.9375 -2.34427,3.49555 -4.94017,10.31391 1.65625,27.03125 4.79214,12.14474 -5.64918,9.38439 -28.6875,10.03125 -6.33671,0.17792 -7.40723,0.64601 -16.875,3.40625 -3.67924,1.07265 -6.43347,0.3457 -4.09375,-7.375 6.22132,-21.48923 25.63482,-51.11456 47.1875,-51.78125 5.41258,0.0202 -2.85402,-4.43244 -1.15625,-7 1.14364,-1.71649 1.69063,-3.07836 4.875,-6.78125 3.1993,-3.72024 7.1807,-7.23815 10.6875,-8.4375 9.9105,-3.38947 16.179182,-10.5037 20.9375,-17.75 4.758318,-7.2463 9.760842,-14.98099 13.790979,-19.5625 8.399265,-7.13109 17.947719,-11.1466 26.579717,-12.42028 z m -46.383609,29.16486 c -2.130107,3.06203 -4.848197,5.48276 -8.829717,8.99027 -0.70108,-9.35992 -4.24033,-21.15662 -15.27919,-16.24664 6.35844,-8.45156 16.77027,-5.51365 24.108907,7.25637 z m -11.674587,23.91167 c -4.03898,0.1203 -13.63356,6.71296 -11.3125,7.3125 3.448,0.89065 5.85746,-3.06506 6.65625,-2 0.79879,1.06505 -3.98884,6.11989 -2.125,8.25 1.86385,2.13011 10.52138,-10.92425 8.125,-13.1875 -0.29955,-0.28291 -0.76675,-0.39219 -1.34375,-0.375 z m 13.78125,5.6875 c -12.17132,-0.16801 -21.14791,15.22012 -16.3125,23.46875 1.53677,2.62156 3.3125,-3.75 3.3125,-3.75 0,0 3.11795,3.53663 14,-2.375 8.402975,-4.56488 4,-12 4,-12 0,0 4.71202,-2.54027 0.375,-4.25 -1.837848,-0.72451 -3.636241,-1.06975 -5.375,-1.09375 z m 35.75,1.59375 c 2.263242,2.13011 10.208153,17.39173 3.34375,24 -10.703205,10.30384 -6.124144,19.34772 -2.063621,23.07541 0,0 -16.825481,-4.92207 -3.316804,-22.83402 5.115247,-6.78261 -1.725255,-19.11178 -10.487087,-17.76291 4.526484,-3.3283 9.31616,-5.23421 12.523762,-6.47848 z M -96,389.34375 c 3.349039,6.48058 -5.80905,12.7184 -13.5625,10.6875 3.59456,-5.45841 7.17217,-9.62245 13.5625,-10.6875 z m -3.28125,2.28125 c -0.93337,0.009 -2.08278,0.50309 -3.03125,1.40625 -1.51756,1.44506 -2.00642,3.38529 -1.09375,4.34375 0.91267,0.95846 2.88869,0.57006 4.40625,-0.875 1.517557,-1.44506 2.006417,-3.38529 1.09375,-4.34375 -0.34225,-0.35942 -0.814977,-0.5364 -1.375,-0.53125 z"
         id="path4173"
         style="font-size:medium;font-style:normal;font-variant:normal;font-weight:normal;font-stretch:normal;text-indent:0;text-align:start;text-decoration:none;line-height:normal;letter-spacing:normal;word-spacing:normal;text-transform:none;direction:ltr;block-progression:tb;writing-mode:lr-tb;text-anchor:start;baseline-shift:baseline;color:#000000;fill:#496000;fill-opacity:1;stroke:none;stroke-width:5;marker:none;visibility:visible;display:inline;overflow:visible;enable-background:accumulate;font-family:Sans;-inkscape-font-specification:Sans" />
    </g>
  </g>
  <path
     d="M 3.7328174,70.674754 C 7.4017354,48.492404 18.700387,40.290791 26.680069,37.326951 c 1.27219,-5.14938 6.598055,-9.4801 9.575111,-11.39108 0.681635,-6.57435 0.11697,-10.26917 -7.428965,-9.07985 4.670973,-11.4318596 9.855482,-5.06313 16.266413,1.25279 C 49.964594,9.5149014 57.899726,4.7031714 67.126661,2.9886214 56.270295,17.244641 53.893683,21.197341 71.759594,18.837081 c -13.161586,10.00294 -9.876435,11.28363 -7.361052,18.67589 3.609629,9.323133 -9.919494,10.306293 -0.699008,20.139683 -11.877419,-4.81211 -7.316097,-6.57437 -4.759364,-15.985363 -1.365082,-4.65767 -4.246008,-3.42634 -9.235539,-3.65072 -2.887718,5.960093 -5.515198,6.463833 -10.536382,8.516663 -2.431784,4.2103 -4.408093,6.88534 -8.77893,8.11858 0,0 1.719864,3.18045 1.33117,10.75998 -8.965548,3.22634 -13.226698,-1.42912 -27.9876716,5.26296 z"
     id="path4177"
     style="fill:#ffffff;fill-opacity:1;stroke:#000000;stroke-width:1px;stroke-linecap:butt;stroke-linejoin:miter;stroke-opacity:1" />
  <g
     transform="matrix(0.47473464,0,0,0.47473464,90.028005,-149.35736)"
     id="g4179"
     style="fill:#496000;fill-opacity:1">
    <g
       id="g4183"
       style="fill:#496000;fill-opacity:1">
      <path
         d="m -41.0625,316.71875 c -9.576308,1.01227 -20.437266,3.97659 -29.25,7.9375 -12.689388,4.5451 -17.191568,11.74018 -24.8125,23.4375 -11.15001,-20.80692 -41.92684,-26.49295 -41.8125,21.8125 19.56928,-37.23779 25.50612,-2.99825 18.56887,0.52807 -6.86631,3.49026 -13.44723,13.16503 -18.87854,20.52748 -4.82783,2.6553 -11.25044,5.91984 -19.19033,14.56945 -12.14063,1.68579 -22.40697,-0.0589 -25.34375,5.0625 -1.92028,4.88459 -0.83547,28.6183 -1.34375,35.5625 -0.55023,7.5173 -4.47505,20.2185 -4.40625,27.78125 0.0449,4.93417 13.37698,-12.52554 26.0625,-13.9375 14.32568,-1.59452 20.40751,-0.6761 31.21875,-1.84375 3.43365,-0.38537 6.60948,-1.10948 8.71875,-3.21875 4.52684,-4.79348 0.17472,-20.54012 -0.29959,-24.04322 8.88011,-4.01684 12.99872,-10.88406 16.73709,-16.70678 3.77753,-0.95969 15.445077,-3.54975 21,-16.34375 7.291276,-0.62721 21.90219,-3.71024 9.039579,16.66337 -6.517142,10.32276 5.48712,23.59547 23.147921,23.55538 1.965174,-0.004 -17.965788,-13.53523 -1.5,-27.15625 6.115872,-5.05925 1.147006,-24.90772 -1.8125,-28.03125 8.5569,-3.5296 16.780975,-7.81843 24.028066,-11.61639 -5.695239,-3.30642 -12.406435,-4.85672 -18.403066,-4.82111 5.354884,-3.41771 16.921224,-11.53597 20.25,-16.09375 -11.616163,-0.86442 -19.285929,-0.0412 -27.78125,2.8125 9.452491,-6.90785 8.090662,-15.36938 18.71875,-24 -8.87593,1.32852 -13.462677,3.88184 -18.255425,7.21014 6.099195,-6.84313 11.408663,-11.09351 15.599175,-19.64764 z m -12.441804,7.73597 c -11.095923,11.19905 -13.975386,11.23168 -18.558196,17.23278 -6.054124,7.92777 -5.560879,14.47415 -6.5625,18.21875 -1.7769,6.64303 -7.715317,4.85942 -13.0625,15.53125 14.183728,-6.21639 24.683497,-12.45862 46.25,-18.375 -9.461391,8.73077 -24.403941,17.1424 -25.21875,18.25 -2.183992,3.18854 -5.444043,10.06958 -11.15625,15.3125 2.408839,-7.40462 1.715415,-13.1914 0.25,-11.875 -5.549237,4.98497 -4.613076,19.29372 -12.65625,24.78125 -19.7524,13.47626 -22.75335,1.44128 -25.46875,3.53125 -3.95231,3.04198 5.19443,6.03907 8.84375,7.09375 -12.45497,22.57734 -15.33207,-1.01345 -17.5625,0.9375 -2.34427,3.49555 -4.94017,10.31391 1.65625,27.03125 4.79214,12.14474 -5.64918,9.38439 -28.6875,10.03125 -6.33671,0.17792 -7.40723,0.64601 -16.875,3.40625 -3.67924,1.07265 -6.43347,0.3457 -4.09375,-7.375 6.22132,-21.48923 25.63482,-51.11456 47.1875,-51.78125 5.41258,0.0202 -2.85402,-4.43244 -1.15625,-7 1.14364,-1.71649 1.69063,-3.07836 4.875,-6.78125 3.1993,-3.72024 7.1807,-7.23815 10.6875,-8.4375 9.9105,-3.38947 16.179182,-10.5037 20.9375,-17.75 4.758318,-7.2463 9.760842,-14.98099 13.790979,-19.5625 8.399265,-7.13109 17.947719,-11.1466 26.579717,-12.42028 z m -46.383609,29.16486 c -2.130107,3.06203 -4.848197,5.48276 -8.829717,8.99027 -0.70108,-9.35992 -4.24033,-21.15662 -15.27919,-16.24664 6.35844,-8.45156 16.77027,-5.51365 24.108907,7.25637 z m -11.674587,23.91167 c -4.03898,0.1203 -13.63356,6.71296 -11.3125,7.3125 3.448,0.89065 5.85746,-3.06506 6.65625,-2 0.79879,1.06505 -3.98884,6.11989 -2.125,8.25 1.86385,2.13011 10.52138,-10.92425 8.125,-13.1875 -0.29955,-0.28291 -0.76675,-0.39219 -1.34375,-0.375 z m 13.78125,5.6875 c -12.17132,-0.16801 -21.14791,15.22012 -16.3125,23.46875 1.53677,2.62156 3.3125,-3.75 3.3125,-3.75 0,0 3.11795,3.53663 14,-2.375 8.402975,-4.56488 4,-12 4,-12 0,0 4.71202,-2.54027 0.375,-4.25 -1.837848,-0.72451 -3.636241,-1.06975 -5.375,-1.09375 z m 35.75,1.59375 c 2.263242,2.13011 10.208153,17.39173 3.34375,24 -10.703205,10.30384 -6.124144,19.34772 -2.063621,23.07541 0,0 -16.825481,-4.92207 -3.316804,-22.83402 5.115247,-6.78261 -1.725255,-19.11178 -10.487087,-17.76291 4.526484,-3.3283 9.31616,-5.23421 12.523762,-6.47848 z M -96,389.34375 c 3.349039,6.48058 -5.80905,12.7184 -13.5625,10.6875 3.59456,-5.45841 7.17217,-9.62245 13.5625,-10.6875 z m -3.28125,2.28125 c -0.93337,0.009 -2.08278,0.50309 -3.03125,1.40625 -1.51756,1.44506 -2.00642,3.38529 -1.09375,4.34375 0.91267,0.95846 2.88869,0.57006 4.40625,-0.875 1.517557,-1.44506 2.006417,-3.38529 1.09375,-4.34375 -0.34225,-0.35942 -0.814977,-0.5364 -1.375,-0.53125 z"
         id="path4185"
         style="font-size:medium;font-style:normal;font-variant:normal;font-weight:normal;font-stretch:normal;text-indent:0;text-align:start;text-decoration:none;line-height:normal;letter-spacing:normal;word-spacing:normal;text-transform:none;direction:ltr;block-progression:tb;writing-mode:lr-tb;text-anchor:start;baseline-shift:baseline;color:#000000;fill:#496000;fill-opacity:1;stroke:none;stroke-width:5;marker:none;visibility:visible;display:inline;overflow:visible;enable-background:accumulate;font-family:Sans;-inkscape-font-specification:Sans" />
    </g>
  </g>
  <path
     d="m 59.240185,43.858404 2.34937,3.58182 -1.42503,3.04263 -3.15817,-4.15954 z"
     id="path4187"
     style="fill:#496000;fill-opacity:1;stroke:none" />
  <path
     d="m 67.692239,59.400906 c -5.5302,-5.18002 -9.82994,-12.48058 -13.3685,-17.839648 -2.04943,-3.103798 -7.67551,12.310518 -7.67551,12.310518 l 14.11218,10.14676 z"
     id="path4189"
     style="fill:#ffffff;fill-opacity:1;stroke:none" />
</svg>
