<?xml version="1.0" encoding="UTF-8" standalone="no"?>
<!-- Created with Inkscape (http://www.inkscape.org/) -->
<svg
   xmlns:dc="http://purl.org/dc/elements/1.1/"
   xmlns:cc="http://creativecommons.org/ns#"
   xmlns:rdf="http://www.w3.org/1999/02/22-rdf-syntax-ns#"
   xmlns:svg="http://www.w3.org/2000/svg"
   xmlns="http://www.w3.org/2000/svg"
   version="1.1"
   width="176"
   height="62.5"
   transform="scale(.49)"
   id="svg2">
  <defs id="defs4" />
  <metadata id="metadata7">
    <rdf:RDF>
      <cc:Work>
        <dc:format>image/svg+xml</dc:format>
        <dc:type
           rdf:resource="http://purl.org/dc/dcmitype/StillImage" />
        <dc:title>KorAP-Testbed Logo</dc:title>
      </cc:Work>
    </rdf:RDF>
  </metadata>
  <g transform="translate(-193.4375,-1075.875)" id="layer1">
    <path d="m 452.125,1098.3437 c -0.13853,0 -0.26847,0.028 -0.40625,0.031 -0.0633,9e-4 -0.1244,0 -0.1875,0 l -41.53125,0 -40,0 -20,0 -11.9375,0 -10.84375,0 0,0.062 c -9.55779,0.3611 -17.1875,8.1975 -17.1875,17.8437 0,0.2871 0.0179,0.5599 0.0312,0.8438 l -0.0625,0 0,81.25 40,0 0,-40 20,0 0,40 40,0 0,-40 42.125,0 0.46875,0 0,-0.031 c 9.62803,-0.2482 17.35652,-8.0737 17.40625,-17.7499 1.6e-4,-0.031 0,-0.062 0,-0.094 l 0,-24.2501 c 0,-0.1254 0.003,-0.2502 0,-0.375 -0.19976,-9.7029 -8.12415,-17.5312 -17.875,-17.5312 z M 350,1118.375 l 20,0 0,20 -20,0 z m 60,0 20,0 0,20 -20,0 z" style="fill:#496000;fill-opacity:1;stroke:#ffffff;stroke-width:5;stroke-linecap:round;stroke-linejoin:round;stroke-miterlimit:4;stroke-opacity:1;stroke-dasharray:none" />
    <path d="m 196.0625,1078.375 -0.125,120 40.0625,0 0,-42.8125 19.9375,42.8125 12,0 28.0625,0 14,0 40,0 0,-40 40,0 0,-2.7188 c -3.6e-4,-0.01 3.8e-4,-0.021 0,-0.031 -0.3416,-9.4668 -8.05179,-17.0523 -17.5625,-17.2187 -5.5e-4,0 5.5e-4,-0.031 0,-0.031 l -0.3125,0 -22.125,0 -40,0 -41.9375,0 0,0.125 -0.0625,-0.125 28,-60 -39.9375,0 -20.0625,42.9062 0,-42.9062 -39.9375,0 z m 91.9375,80 20,0 0,20 -20,0 0,-20 z" style="fill:#ffffff;fill-opacity:1;stroke:#496000;stroke-width:5;stroke-linecap:round;stroke-linejoin:round;stroke-miterlimit:4;stroke-opacity:1;stroke-dasharray:none" />
    <g style="fill:#ffffff;fill-opacity:1;stroke:none">
      <path d="m 424.30998,1197.2666 0,-28.4881 -8.57407,0 0,-2.6594 19.99908,0 0,2.6594 -8.59535,0 0,28.4881 -2.82966,0" />
      <path d="m 448.01103,1185.6714 c -0.12767,-1.7304 -0.70211,-3.0708 -1.72333,-4.0211 -1.02124,-0.9503 -2.40415,-1.4255 -4.14874,-1.4255 -1.58859,0 -2.92186,0.4965 -3.99982,1.4893 -1.06379,0.9929 -1.68078,2.312 -1.85098,3.9573 l 11.72287,0 m 3.10624,2.2339 -14.99931,0 c 0.0709,2.4396 0.68081,4.3544 1.8297,5.7444 1.14888,1.3901 2.68781,2.0851 4.61681,2.0851 1.38999,0 2.6098,-0.3759 3.65941,-1.1277 1.04958,-0.7517 1.92188,-1.8864 2.6169,-3.4041 l 2.40414,1.3191 c -0.96451,1.9148 -2.14885,3.3261 -3.55302,4.2339 -1.39003,0.8936 -3.09917,1.3404 -5.12743,1.3404 -2.76584,0 -5.00687,-0.922 -6.7231,-2.7659 -1.70205,-1.858 -2.55307,-4.2906 -2.55307,-7.2975 0,-3.0921 0.84393,-5.5884 2.5318,-7.489 1.70204,-1.9006 3.9218,-2.851 6.65927,-2.851 2.60979,0 4.70189,0.8794 6.27631,2.6382 1.57437,1.7446 2.36157,4.0778 2.36159,6.9997 l 0,0.5744" />
      <path d="m 454.45754,1193.9051 2.48925,-1.4255 c 0.41133,1.0496 1.00704,1.8439 1.78715,2.3829 0.7801,0.5248 1.73751,0.7872 2.87221,0.7872 1.10633,0 1.98572,-0.2766 2.63818,-0.8298 0.65244,-0.5673 0.97867,-1.3191 0.97868,-2.2552 -10e-6,-1.4467 -1.28364,-2.6736 -3.85089,-3.6807 -0.2695,-0.099 -0.48225,-0.1844 -0.63827,-0.2553 -1.98573,-0.7801 -3.37573,-1.5815 -4.17002,-2.4041 -0.79429,-0.8369 -1.19144,-1.8652 -1.19143,-3.085 -1e-5,-1.6028 0.56734,-2.9148 1.70205,-3.936 1.13469,-1.0354 2.60271,-1.5531 4.40405,-1.5531 1.53184,0 2.83674,0.3333 3.91472,0.9999 1.07795,0.6667 1.86514,1.617 2.36159,2.851 l -2.40415,1.3403 c -0.29787,-0.8935 -0.7943,-1.5744 -1.48929,-2.0424 -0.69501,-0.4681 -1.54604,-0.7021 -2.55307,-0.7021 -0.90777,0 -1.65951,0.2695 -2.25522,0.8084 -0.58154,0.5249 -0.87231,1.1844 -0.8723,1.9787 -1e-5,0.7801 0.29076,1.4255 0.8723,1.9361 0.58153,0.5106 1.78714,1.0708 3.61686,1.6807 2.07081,0.7234 3.46082,1.5106 4.17002,2.3616 0.72335,0.8511 1.08504,2.0283 1.08505,3.5318 -10e-6,1.7304 -0.617,3.1133 -1.85097,4.1487 -1.234,1.0354 -2.8935,1.5532 -4.9785,1.5532 -1.60277,0 -2.98569,-0.3617 -4.14875,-1.0851 -1.14888,-0.7376 -1.97863,-1.773 -2.48925,-3.1062" />
      <path d="m 473.83964,1180.6291 -3.46793,0 0,-2.234 3.46793,0 0,-7.7443 2.57435,0 0,7.7443 3.78706,0 0,2.234 -3.78706,0 0,16.6375 -2.57435,0 0,-16.6375" />
      <path d="m 499.39166,1188.033 c -2e-5,-2.468 -0.57446,-4.4041 -1.72332,-5.8083 -1.1489,-1.4183 -2.70911,-2.1275 -4.68064,-2.1275 -1.97155,0 -3.51758,0.6666 -4.63809,1.9999 -1.12052,1.3191 -1.68078,3.1346 -1.68077,5.4465 -10e-6,2.5248 0.56734,4.5105 1.70205,5.9572 1.14887,1.4326 2.71618,2.1489 4.70191,2.1489 2.02826,0 3.58847,-0.6525 4.68064,-1.9574 1.09213,-1.3191 1.6382,-3.2055 1.63822,-5.6593 m -12.68027,9.2336 -2.6169,0 0,-32.9772 2.6169,0 0,17.5524 c 0.63826,-1.3616 1.53184,-2.39 2.68073,-3.085 1.16306,-0.7092 2.54597,-1.0638 4.14875,-1.0638 2.58142,0 4.68771,0.9574 6.31886,2.8722 1.63111,1.9007 2.44667,4.3616 2.44669,7.3827 -2e-5,3.0495 -0.82977,5.5033 -2.48925,7.3613 -1.64533,1.8581 -3.82253,2.7872 -6.53161,2.7872 -1.51767,0 -2.83676,-0.3617 -3.95727,-1.0851 -1.12052,-0.7234 -1.99282,-1.7872 -2.6169,-3.1913 l 0,3.4466" />
      <path d="m 520.77367,1185.6714 c -0.12767,-1.7304 -0.70211,-3.0708 -1.72333,-4.0211 -1.02124,-0.9503 -2.40416,-1.4255 -4.14874,-1.4255 -1.58859,0 -2.92187,0.4965 -3.99982,1.4893 -1.06379,0.9929 -1.68078,2.312 -1.85098,3.9573 l 11.72287,0 m 3.10624,2.2339 -14.99932,0 c 0.0709,2.4396 0.68082,4.3544 1.82971,5.7444 1.14887,1.3901 2.68781,2.0851 4.61681,2.0851 1.38999,0 2.60979,-0.3759 3.65941,-1.1277 1.04958,-0.7517 1.92188,-1.8864 2.6169,-3.4041 l 2.40414,1.3191 c -0.96451,1.9148 -2.14885,3.3261 -3.55303,4.2339 -1.39002,0.8936 -3.09916,1.3404 -5.12742,1.3404 -2.76584,0 -5.00687,-0.922 -6.7231,-2.7659 -1.70205,-1.858 -2.55308,-4.2906 -2.55307,-7.2975 -1e-5,-3.0921 0.84393,-5.5884 2.53179,-7.489 1.70205,-1.9006 3.9218,-2.851 6.65928,-2.851 2.60979,0 4.70189,0.8794 6.2763,2.6382 1.57438,1.7446 2.36158,4.0778 2.3616,6.9997 l 0,0.5744" />
      <path d="m 530.66684,1188.033 c -10e-6,2.4396 0.54607,4.3189 1.63822,5.638 1.10633,1.3191 2.68072,1.9787 4.72319,1.9787 1.97153,0 3.52465,-0.7163 4.65936,-2.1489 1.13468,-1.4467 1.70203,-3.4324 1.70205,-5.9572 -2e-5,-2.3119 -0.56027,-4.1274 -1.68077,-5.4465 -1.12053,-1.3333 -2.66656,-1.9999 -4.63809,-1.9999 -1.97155,0 -3.53176,0.7092 -4.68064,2.1275 -1.14889,1.4042 -1.72333,3.3403 -1.72332,5.8083 m 12.68027,9.2336 0,-3.4466 c -0.6241,1.4041 -1.4964,2.4679 -2.6169,3.1913 -1.12053,0.7234 -2.43962,1.0851 -3.95727,1.0851 -2.7091,0 -4.8934,-0.9291 -6.55289,-2.7872 -1.64532,-1.858 -2.46798,-4.3118 -2.46797,-7.3613 -10e-6,-3.0211 0.81556,-5.482 2.44669,-7.3827 1.63113,-1.9148 3.73741,-2.8722 6.31886,-2.8722 1.60276,0 2.97858,0.3546 4.12748,1.0638 1.16305,0.695 2.06371,1.7234 2.702,3.085 l 0,-17.5524 2.65945,0 0,32.9772 -2.65945,0" />
    </g>
  </g>
</svg>
