<?xml version="1.0" encoding="UTF-8" standalone="no"?>
<!-- Created with Inkscape (http://www.inkscape.org/) -->

<svg
   xmlns:dc="http://purl.org/dc/elements/1.1/"
   xmlns:cc="http://creativecommons.org/ns#"
   xmlns:rdf="http://www.w3.org/1999/02/22-rdf-syntax-ns#"
   xmlns:svg="http://www.w3.org/2000/svg"
   xmlns="http://www.w3.org/2000/svg"
   version="1.1"
   width="297"
   height="108"
   id="svg2">
  <defs
     id="defs4" />
  <metadata
     id="metadata7">
    <rdf:RDF>
      <cc:Work>
        <dc:format>image/svg+xml</dc:format>
        <dc:type
           rdf:resource="http://purl.org/dc/dcmitype/StillImage" />
        <dc:title></dc:title>
      </cc:Work>
    </rdf:RDF>
  </metadata>
  <path
     d="m 272.6875,2.3470265 c -0.13853,0 -0.26847,0.028 -0.40625,0.031 -0.0633,9e-4 -0.1244,0 -0.1875,0 l -41.53125,0 -40,3e-4 -20,-3e-4 -11.9375,0 -10.84375,0 0,0.062 c -9.55779,0.3611 -17.1875,8.1974995 -17.1875,17.8436995 0,0.2871 0.0179,0.5599 0.0312,0.8438 l -0.0625,0 0,81.250004 40,0 0,-40.000004 20,0 0,40.000004 40,0 0,-40.000004 42.125,0 0.46875,0 0,-0.031 c 9.62803,-0.2482 17.35652,-8.0737 17.40625,-17.7499 1.6e-4,-0.031 0,-0.062 0,-0.094 l 0,-24.2501 c 0,-0.1254 0.003,-0.2502 0,-0.375 -0.19976,-9.7029 -8.12415,-17.5311995 -17.875,-17.5311995 z m -102.125,20.0312995 20,0 0,20 -20,0 z m 60,0 20,0 0,20 -20,0 z"
     id="path6"
     style="fill:#496000;fill-opacity:1;stroke:#ffffff;stroke-width:4.69999981;stroke-linecap:round;stroke-linejoin:round;stroke-miterlimit:4;stroke-opacity:1;stroke-dasharray:none" />
  <path
     d="M 2.625,7.7150265 2.5,102.37833 l 40.0625,0 0,-42.812504 19.9375,42.812504 12,0 28.0625,0 14,0 40,0 0,-40.000004 40,0 0,-2.7188 c -3.6e-4,-0.01 3.8e-4,-0.021 0,-0.031 -0.3416,-9.4668 -8.05179,-17.0523 -17.5625,-17.2187 -5.5e-4,0 5.5e-4,-0.031 0,-0.031 l -0.3125,0 -22.125,0 -40,0 -41.9375,0 0,0.125 -0.0625,-0.125 28,-34.6632995 -39.9375,0 -20.0625,17.5694995 0,-17.5694995 -39.9375,0 z m 91.9375,54.6632995 20,0 0,20 -20,0 z"
     id="path8"
     style="fill:#ffffff;fill-opacity:1;stroke:#496000;stroke-width:5;stroke-linecap:round;stroke-linejoin:round;stroke-miterlimit:4;stroke-opacity:1;stroke-dasharray:none" />
</svg>
